<svg width="264" height="272" viewBox="0 0 264 272" fill="none" xmlns="http://www.w3.org/2000/svg">
<path d="M155.429 240.509C150.815 241.723 145.477 242.316 140.024 242.082C138.816 242.03 137.608 241.933 136.374 241.801C135.621 241.724 134.857 241.593 134.079 241.491C134.032 241.488 133.937 241.478 133.869 241.448C132.471 241.231 131.054 240.946 129.664 240.58C129.428 240.508 129.166 240.46 128.929 240.388C128.199 240.187 127.496 239.972 126.786 239.755C126.694 239.699 126.62 239.667 126.525 239.657C125.727 239.382 124.949 239.09 124.172 238.792C124.101 238.764 124.054 238.717 123.985 238.727C121.73 237.825 119.576 236.69 117.592 235.317C116.839 234.811 116.122 234.279 115.419 233.679C113.607 232.206 111.939 230.5 110.518 228.541L110.377 228.383C109.919 227.715 109.507 227.057 109.07 226.363C108.211 224.891 107.437 223.334 106.84 221.625C102.822 210.537 104.924 198.777 110.286 188.663C112.161 185.11 114.447 181.794 117.02 178.74L117.046 178.724C121.057 173.978 125.719 169.976 130.686 167.05C131.336 166.673 131.988 166.285 132.662 165.924C132.88 165.827 133.406 165.452 134.062 164.967C134.762 164.496 135.563 163.882 136.285 163.338C136.578 163.128 136.845 162.944 137.061 162.749C137.644 162.335 138.028 162.043 138.031 161.996L138.056 161.971C138.105 161.883 138.178 161.821 138.199 161.754L138.229 161.727C138.277 161.733 138.323 161.692 138.369 161.745C143.748 164.137 149.627 167.401 155.249 171.348C159.52 174.342 163.661 177.782 167.269 181.595C167.795 182.148 168.355 182.736 168.863 183.309C172.142 186.994 174.914 191.023 176.851 195.282C177.838 197.388 178.613 199.592 179.132 201.845C183.355 219.778 172.134 236.061 155.426 240.505L155.429 240.509Z" fill="url(#paint0_linear_72_2)"/>
<path d="M179.134 201.849C178.621 199.597 177.846 197.393 176.853 195.285C174.914 191.023 172.148 186.995 168.865 183.313C168.357 182.739 167.801 182.149 167.271 181.598C166.719 181.849 166.346 182.41 166.614 183.147C169.13 190.666 170.089 197.882 169.591 204.462C169.532 204.79 169.525 205.123 169.494 205.431C165.458 199.806 159.859 194.858 155.179 190.265C154.647 189.71 153.993 190.045 153.836 190.555C153.922 189.268 153.903 188.032 153.877 187.024C153.535 177.37 143.506 169.001 137.064 162.746C136.649 162.323 135.881 162.719 136.243 163.283C136.26 163.3 136.275 163.317 136.289 163.336C139.602 168.617 144.412 172.866 147.908 178.076C151.275 183.036 154.657 196.873 146.928 198.907C141.435 200.343 135.971 192.015 133.981 187.991C131.522 182.987 131.507 177.733 132.323 172.64C132.486 171.992 132.665 171.364 132.869 170.717C132.92 170.583 132.859 170.459 132.758 170.397C133.143 168.523 133.592 166.736 134.062 164.967C134.197 164.34 134.381 163.709 134.537 163.11C134.827 162.019 133.191 161.082 132.643 162.124C131.839 163.662 131.182 165.316 130.684 167.046C130.322 168.254 130.054 169.467 129.831 170.734C124.249 178.387 119.21 186.668 115.506 195.476C114.089 198.813 112.45 202.627 111.161 206.647C110.6 200.572 110.474 194.31 110.287 188.657C104.923 198.767 102.82 210.533 106.842 221.619C107.439 223.328 108.211 224.89 109.071 226.357C109.509 227.051 109.915 227.708 110.378 228.377L110.519 228.535C111.94 230.494 113.609 232.2 115.421 233.673C116.123 234.273 116.838 234.801 117.593 235.311L117.615 235.288C119.619 236.645 121.728 237.761 123.984 238.717C124.053 238.707 124.1 238.754 124.172 238.783C124.948 239.08 125.728 239.376 126.524 239.648C126.62 239.657 126.691 239.686 126.786 239.745C127.495 239.962 128.199 240.178 128.929 240.378C129.165 240.45 129.427 240.498 129.664 240.57C131.051 240.932 132.475 241.219 133.869 241.438C133.936 241.469 134.032 241.478 134.078 241.481C134.856 241.584 135.62 241.714 136.373 241.791C137.607 241.923 138.816 242.02 140.023 242.073C145.479 242.31 150.815 241.714 155.428 240.499C172.135 236.055 183.356 219.772 179.134 201.839L179.134 201.849ZM153.812 190.823C153.828 190.989 153.853 191.153 153.991 191.313C159.121 197.885 164.045 204.172 168.569 210.991C167.909 213.713 166.965 216.316 165.663 218.708C162.944 210.857 158.076 203.41 152.381 197.61C153.287 195.603 153.688 193.12 153.81 190.82L153.812 190.823ZM119.408 230.871C115.823 227.134 113.726 221.766 112.505 215.765C112.66 214.183 112.871 212.604 113.143 211.009C114.128 205.914 115.889 201.056 117.748 196.306C120.919 188.306 125.308 181.005 129.484 173.559C129.252 175.859 129.318 178.175 129.593 180.445C128.959 185.896 129.407 191.552 129.954 197.216C131.223 210.712 129.493 222.845 119.411 230.869L119.408 230.871ZM138.417 236.045C131.197 237.091 125.886 235.847 121.967 233.048C136.231 223.815 132.151 204.916 131.372 187.958C131.502 188.311 131.618 188.673 131.727 188.999C133.673 193.662 137.771 198.678 142.662 200.659C142.373 207.436 143.382 214.318 143.43 221.125C143.468 225.094 143.156 228.951 142.018 232.655C141.655 233.853 140.99 234.813 140.253 235.744C139.656 235.851 139.034 235.972 138.416 236.051L138.417 236.045ZM145.915 234.394C146.768 231.496 147.135 228.379 147.281 226.344C147.895 218.176 146.071 209.391 144.165 201.204C144.875 201.37 145.584 201.543 146.297 201.568C148.618 201.708 150.256 200.783 151.388 199.278C156.539 206.806 160.193 214.678 162.801 223.182C158.872 228.215 153.27 232.118 145.919 234.392L145.915 234.394Z" fill="#151923"/>
<path d="M163.258 231.467C161.899 229.916 159.675 231.869 161.038 233.418C162.401 234.968 164.619 233.012 163.258 231.467Z" fill="#1D4587"/>
<path d="M153.794 234.613C153.757 234.669 153.723 234.723 153.69 234.778C152.867 236.118 154.425 237.893 155.86 237.245C155.916 237.213 155.976 237.188 156.037 237.163C158.534 236.033 155.234 232.28 153.798 234.611L153.794 234.613Z" fill="#1D4587"/>
<path d="M147.117 237.499C146.073 236.309 144.365 237.803 145.412 238.997C146.457 240.187 148.167 238.69 147.117 237.499Z" fill="#1D4587"/>
<path d="M169.472 227.233C169.461 227.13 169.463 227.039 169.459 226.937C169.425 226.053 168.839 225.386 167.969 225.237C167.866 225.222 167.776 225.204 167.674 225.184C166.03 224.92 165.23 227.016 166.29 228.216C167.347 229.419 169.529 228.897 169.475 227.231L169.472 227.233Z" fill="#1D4587"/>
<path d="M254.429 164.449C243.147 156.068 227.352 154.312 214.281 151.928C189.979 147.494 165.048 150.224 142.096 156.431C141.807 156.493 141.549 156.588 141.257 156.653C140.275 156.913 139.295 157.167 138.339 157.453C137.242 157.765 132.05 160.328 133.938 161.647C134.889 162.298 135.828 162.97 136.738 163.654C137.296 164.049 137.806 164.437 138.344 164.848C148.994 172.707 159.153 182.213 169.898 190.321C172.206 192.065 174.515 193.714 176.852 195.291C180.517 197.749 184.259 200.003 188.126 201.905C205.271 210.347 217.177 198.771 228.702 188.223C237.279 187.203 245.478 184.981 251.723 181.213C257.394 177.814 261.61 169.776 254.429 164.449Z" fill="url(#paint1_linear_72_2)"/>
<path d="M254.429 164.449C243.147 156.068 227.352 154.311 214.281 151.927C189.978 147.494 165.048 150.223 142.095 156.43C141.273 157.017 140.451 157.594 139.654 158.206C138.965 158.206 138.298 158.234 137.677 158.36C136.625 158.541 136.302 160.031 137.312 160.687C141.985 163.653 148.713 164.26 153.95 165.566C158.794 166.752 163.667 167.731 168.566 168.541C175.111 180.149 183.134 191.253 194.097 198.611C190.177 198.535 186.826 197.935 184.807 197.051C167.446 189.449 155.1 173.395 138.343 164.848C148.994 172.707 159.153 182.213 169.898 190.321C172.206 192.065 174.515 193.714 176.852 195.291C180.517 197.749 184.259 200.003 188.126 201.905C205.27 210.347 217.177 198.77 228.702 188.223C237.279 187.203 245.478 184.981 251.723 181.213C257.393 177.814 261.61 169.776 254.429 164.449ZM213.283 176.306C215.416 178.296 217.254 180.872 218.061 183.656C219.31 187.82 214.734 188.489 211.441 189.003C204.207 180.335 193.988 172.23 183.406 169.983C186.873 169.923 190.347 169.514 193.528 168.531C200.485 170.661 207.417 170.855 213.283 176.306ZM150.981 160.724C149.076 160.208 146.956 159.512 144.833 158.958C158.465 156.891 180.916 157.265 198.63 158.418C200.933 161.277 201.854 161.351 198.122 163.611C195.659 165.075 192.725 165.694 189.883 166.196C183.302 167.32 176.278 166.287 169.587 165.09C163.348 163.966 157.167 162.323 150.983 160.727L150.981 160.724ZM170.783 168.906C171.805 169.051 172.823 169.274 173.844 169.4C175.218 169.585 176.612 169.709 178.038 169.81C178.009 169.977 178.121 170.151 178.359 170.227C191.686 174.573 202.808 183.84 211.281 195.247C207.979 196.743 204.511 197.628 201.161 198.13C187.872 191.123 180.931 179.501 170.783 168.906Z" fill="#151923"/>
<path d="M213.908 162.515C211.151 159.38 206.654 163.331 209.411 166.466C212.169 169.605 216.67 165.651 213.908 162.515Z" fill="url(#paint2_linear_72_2)"/>
<path d="M224.859 165.106C221.686 161.494 216.505 166.046 219.678 169.658C222.854 173.268 228.035 168.716 224.859 165.106Z" fill="url(#paint3_linear_72_2)"/>
<path d="M240.577 166.429C238.436 163.994 234.778 163.612 232.532 165.588C230.284 167.561 230.192 171.246 232.321 173.677C234.46 176.108 238.126 176.486 240.371 174.51C242.619 172.537 242.713 168.856 240.575 166.425L240.577 166.429Z" fill="url(#paint4_linear_72_2)"/>
<path d="M226.433 177.957C226.408 177.896 226.372 177.827 226.347 177.767C225.175 175.289 221.843 178.215 224.153 179.693C224.209 179.73 224.269 179.765 224.324 179.808C225.637 180.653 227.098 179.361 226.43 177.953L226.433 177.957Z" fill="url(#paint5_linear_72_2)"/>
<path d="M109.264 179.154L109.238 179.179C105.884 181.953 102.244 184.398 98.3851 186.388C87.4195 192.096 74.8666 194.32 63.3918 189.932C62.5188 189.605 61.6482 189.223 60.8519 188.821C60.3177 188.563 59.8127 188.277 59.2776 187.974C58.6725 187.602 58.0749 187.225 57.4932 186.824C56.7233 186.288 55.9947 185.703 55.324 185.114C53.7556 183.769 52.3525 182.254 51.1585 180.617C50.5766 179.872 50.0526 179.123 49.5685 178.272C47.7706 175.379 46.4294 172.121 45.526 168.689C45.499 168.565 45.4741 168.445 45.4259 168.353C45.2346 167.576 45.0513 166.805 44.8833 165.999C44.6941 165.131 44.5253 164.282 44.3806 163.353C44.2454 162.483 44.1227 161.567 44.0335 160.691C43.9354 159.86 43.8688 159.005 43.8227 158.169C43.4697 151.989 44.099 145.747 45.4875 140.272C45.6085 139.793 45.7333 139.312 45.8753 138.86C46.0023 138.382 46.1247 137.957 46.2706 137.503C51.9482 119.499 69.776 107.51 88.4661 112.141C90.8094 112.733 93.1039 113.566 95.2781 114.64C99.6469 116.745 103.752 119.745 107.437 123.285C108.014 123.833 108.615 124.447 109.167 125.02C112.976 128.921 116.343 133.408 119.276 138.017C123.121 144.087 126.213 150.439 128.436 156.258C128.486 156.309 128.445 156.358 128.442 156.405L128.416 156.43C128.343 156.467 128.271 156.549 128.172 156.601L128.146 156.626C128.096 156.625 127.757 157.047 127.29 157.652C127.097 157.913 126.85 158.176 126.613 158.489C126.003 159.251 125.321 160.141 124.757 160.897C124.201 161.598 123.787 162.148 123.664 162.384C123.268 163.103 122.832 163.83 122.35 164.503C119.007 169.86 114.5 174.859 109.254 179.145L109.264 179.154Z" fill="url(#paint6_linear_72_2)"/>
<path d="M126.784 160.384C126.126 160.557 125.473 160.731 124.773 160.907C122.885 161.394 120.971 161.861 119.005 162.273C118.938 162.157 118.794 162.072 118.645 162.133C117.989 162.354 117.293 162.528 116.582 162.706C111.156 163.559 105.642 163.53 100.517 160.862C96.3621 158.713 87.8492 152.766 89.7191 146.858C92.2971 138.558 106.758 142.246 111.781 145.916C117.028 149.707 121.249 154.885 126.628 158.499L126.7 158.572C127.255 158.944 127.721 158.095 127.311 157.664C121.1 150.682 112.804 139.846 102.66 139.455C101.596 139.384 100.31 139.411 98.9557 139.459C99.5118 139.291 99.8598 138.575 99.3269 138.026C94.754 132.947 89.8647 126.884 84.1521 122.506C84.487 122.481 84.8315 122.456 85.1658 122.421C92.1443 121.905 99.7151 122.985 107.495 125.75C108.267 126.041 108.875 125.628 109.19 125.026C108.638 124.453 108.041 123.837 107.46 123.291C103.779 119.75 99.67 116.751 95.3012 114.646C93.1249 113.569 90.8266 112.737 88.4892 112.148C69.7992 107.516 51.9714 119.505 46.2937 137.51C46.1516 137.961 46.0276 138.392 45.8985 138.866C45.7505 139.316 45.6257 139.798 45.5106 140.279C44.1222 145.753 43.4907 151.991 43.8459 158.175C43.892 159.012 43.9623 159.864 44.0566 160.697C44.1421 161.575 44.2648 162.492 44.4037 163.359C44.5463 164.284 44.7151 165.134 44.9065 166.006C45.0685 166.81 45.2577 167.583 45.449 168.36C45.501 168.449 45.5259 168.57 45.5492 168.696C46.5204 172.098 47.8346 175.327 49.621 178.251L49.5917 178.278C50.0757 179.13 50.5998 179.878 51.1816 180.623C52.3757 182.26 53.7788 183.776 55.3472 185.121C56.0216 185.707 56.7464 186.294 57.5164 186.83C58.0981 187.231 58.6957 187.608 59.3008 187.98C59.8321 188.285 60.3386 188.565 60.875 188.828C61.6714 189.229 62.542 189.612 63.415 189.938C74.8898 194.326 87.4426 192.102 98.4083 186.394C92.479 186.122 85.8425 185.981 79.4885 185.348C83.7762 183.968 87.9486 182.225 91.5365 180.723C101.048 176.756 110.103 171.408 118.481 165.436C119.812 165.212 121.12 164.912 122.385 164.522C124.251 164.014 126.044 163.288 127.724 162.443C128.881 161.866 127.972 160.109 126.81 160.394L126.784 160.384ZM78.2084 123.465C85.1611 128.415 91.4964 133.729 98.1588 139.298C98.3004 139.43 98.4885 139.47 98.6609 139.475C96.2388 139.608 93.5723 140.008 91.3898 141.01C85.6141 134.837 78.0141 129.519 69.9167 126.559C72.5159 125.201 75.2967 124.181 78.2084 123.465ZM52.2177 147.781C55.0156 139.878 59.4709 133.851 65.0112 129.634C73.8528 132.467 81.9247 136.449 89.5738 142.058C87.9144 143.265 86.8405 145.026 86.8595 147.509C86.8545 148.3 86.975 149.058 87.1394 149.806C78.6045 147.708 69.4419 145.716 60.7674 146.318C58.5912 146.488 55.3176 146.856 52.2156 147.778L52.2177 147.781ZM52.2141 173.589C49.546 169.325 48.5378 163.615 50.0205 155.86C50.1437 155.135 50.3194 154.51 50.4645 153.857C51.4898 153.087 52.5353 152.396 53.8241 151.978C57.8222 150.761 61.889 150.462 66.0553 150.489C73.2448 150.568 80.4507 151.751 87.6153 151.46C89.4539 156.719 94.4908 161.145 99.296 163.271C99.6354 163.443 99.9989 163.537 100.362 163.68C82.5231 162.735 62.7968 158.261 52.2163 173.593L52.2141 173.589ZM90.7755 178.276C85.6399 180.292 80.4283 182.144 74.9758 183.167C73.3025 183.464 71.6052 183.685 69.9377 183.889C63.6505 182.494 58.1148 180.218 54.3836 176.331C63.4106 165.527 76.3483 163.708 90.5314 165.163C96.4586 165.775 102.405 166.266 108.2 165.653C110.596 165.939 113.037 165.975 115.439 165.774C107.371 170.225 99.3942 174.937 90.7792 178.274L90.7755 178.276Z" fill="#151923"/>
<path d="M56.3031 129.104C57.8563 130.577 55.6705 132.958 54.1099 131.489C52.5523 130.008 54.7419 127.625 56.3031 129.104Z" fill="#1D4587"/>
<path d="M52.4331 139.286C52.3697 139.323 52.3078 139.354 52.2502 139.392C50.7874 140.276 49.0086 138.594 49.767 137.046C49.8014 136.977 49.8288 136.921 49.8594 136.853C51.2083 134.165 54.9744 137.742 52.431 139.282L52.4331 139.286Z" fill="#1D4587"/>
<path d="M48.9879 146.453C50.1857 147.589 48.5031 149.418 47.3113 148.283C46.1098 147.15 47.7982 145.322 48.9879 146.453Z" fill="#1D4587"/>
<path d="M61.1242 122.426C61.2329 122.433 61.3357 122.438 61.4363 122.44C62.3727 122.48 63.0486 123.121 63.1436 124.058C63.1598 124.164 63.1701 124.267 63.1826 124.375C63.3793 126.141 61.122 126.997 59.9103 125.854C58.6942 124.704 59.3757 122.353 61.1301 122.428L61.1242 122.426Z" fill="#1D4587"/>
<path d="M105.274 33.6887C101.546 39.8772 99.4743 48.2422 98.6549 57.0883C88.0502 68.2339 76.3872 79.6792 85.6136 98.2316C87.6914 102.424 90.1314 106.501 92.7823 110.52C94.4882 113.082 96.2603 115.621 98.1315 118.167C106.836 130.023 116.971 141.389 125.413 153.128C125.861 153.721 126.273 154.285 126.696 154.903C127.435 155.901 128.156 156.929 128.858 157.984C130.276 160.059 132.784 154.863 133.088 153.744C133.346 152.771 133.588 151.768 133.825 150.767C133.884 150.473 133.974 150.207 134.035 149.917C139.817 126.519 141.947 100.774 136.669 75.0976C133.83 61.2857 131.573 44.6862 122.566 32.2473C116.836 24.332 108.633 28.0684 105.272 33.6946L105.274 33.6887Z" fill="url(#paint7_linear_72_2)"/>
<path d="M105.274 33.6888C101.546 39.8772 99.4746 48.2423 98.6552 57.0884C88.0505 68.234 76.3874 79.6793 85.6138 98.2317C87.6916 102.424 90.1316 106.501 92.7825 110.52C94.4884 113.082 96.2605 115.621 98.1317 118.167C106.836 130.023 116.971 141.389 125.413 153.128C116.089 134.967 99.101 120.792 90.7391 102.088C89.7684 99.907 89.0516 96.367 88.8654 92.2797C96.7936 104.312 108.525 113.579 120.743 121.347C121.72 126.512 122.877 131.672 124.239 136.813C125.735 142.376 126.56 149.43 129.761 154.552C130.468 155.643 132.006 155.439 132.161 154.356C132.273 153.723 132.282 153.034 132.265 152.316C132.871 151.53 133.452 150.724 134.033 149.913C139.815 126.515 141.945 100.771 136.667 75.094C133.828 61.282 131.571 44.6826 122.564 32.2436C116.834 24.3283 108.631 28.0647 105.27 33.691L105.274 33.6888ZM120.046 95.3369C119.124 98.5708 118.801 102.16 118.83 105.77C116.205 94.5624 107.515 83.256 98.3275 75.0026C98.7689 71.6187 99.3349 66.9105 103.688 68.5503C106.593 69.6189 109.316 71.7409 111.434 74.1285C117.251 80.6908 117.65 87.9222 120.048 95.3406L120.046 95.3369ZM124.295 120.563C122.866 113.491 121.586 106.092 122.572 99.3292C123.007 96.4078 123.572 93.401 125.02 90.96C127.255 87.2541 127.355 88.2184 130.39 90.8527C132.077 109.394 133.099 132.816 131.337 146.848C130.706 144.59 129.925 142.324 129.341 140.294C127.512 133.727 125.633 127.16 124.295 120.563ZM89.1665 84.9565C89.5903 81.508 90.407 77.9713 91.8657 74.6557C103.93 84.4184 113.849 96.762 118.716 110.999C118.807 111.251 118.993 111.382 119.162 111.364C119.307 112.851 119.476 114.32 119.707 115.767C119.861 116.85 120.117 117.919 120.304 118.998C109.044 107.561 96.7961 99.3719 89.1702 84.9543L89.1665 84.9565Z" fill="#151923"/>
<path d="M125.708 74.6127C129.04 77.7428 125.071 82.1056 121.742 78.9734C118.414 75.8411 122.385 71.482 125.708 74.6127Z" fill="url(#paint8_linear_72_2)"/>
<path d="M122.713 62.9853C126.551 66.5906 121.975 71.6098 118.14 68.0082C114.31 64.4082 118.884 59.3853 122.713 62.9853Z" fill="url(#paint9_linear_72_2)"/>
<path d="M120.911 46.5065C123.486 48.9334 123.988 52.7826 122.001 54.9632C120.021 57.1395 116.199 56.9322 113.622 54.5112C111.043 52.0864 110.549 48.2328 112.531 46.0603C114.512 43.8781 118.326 44.0801 120.907 46.5086L120.911 46.5065Z" fill="url(#paint10_linear_72_2)"/>
<path d="M109.355 60.2942C109.419 60.327 109.487 60.3672 109.551 60.4C112.145 61.8281 109.214 65.0554 107.612 62.5273C107.578 62.4676 107.529 62.401 107.492 62.3376C106.581 60.8958 107.866 59.4819 109.353 60.2905L109.355 60.2942Z" fill="url(#paint11_linear_72_2)"/>
<path d="M113.685 180.136C106.414 188.808 99.3002 197.664 90.1044 204.351C88.1187 205.812 85.6723 203.031 87.377 201.249C98.6772 189.316 111.507 180.751 119.747 165.684C124.148 157.619 129.471 150.105 139.567 149.94C139.905 149.929 140.236 150.001 140.514 150.085C140.035 148.606 140.361 146.966 141.523 145.942C143.155 144.517 145.708 144.781 147.252 146.54C148.796 148.298 148.731 150.87 147.105 152.297C145.939 153.323 144.223 153.435 142.797 152.731C142.795 152.787 142.842 152.834 142.791 152.874C142.398 154.15 141.892 155.436 141.247 156.653C140.87 157.5 140.4 158.332 139.901 159.14C139.747 159.459 139.55 159.773 139.329 160.055C139.005 160.623 138.633 161.177 138.217 161.733L138.191 161.748C138.169 161.821 138.097 161.887 138.045 161.978L138.023 162C137.605 162.552 137.191 163.102 136.726 163.651C135.819 164.771 134.815 165.887 133.77 166.947C128.918 171.912 122.875 176.106 117.034 178.721L117.013 178.744C115.906 179.296 114.777 179.731 113.677 180.14L113.685 180.136Z" fill="#151923"/>
<path d="M157.451 124.341C163.712 116.129 172.255 111.647 179.736 104.902C181.467 103.345 179.048 100.757 177.211 102.027C162.12 112.473 149.49 127.403 142.992 144.975C142.759 145.605 143.754 146.1 144.093 145.539C148.373 138.282 152.347 131.038 157.451 124.341Z" fill="#151923"/>
<path d="M199.66 113.543C200.441 112.232 198.533 110.38 197.434 111.572C182.981 127.185 163.495 137.252 145.763 148.9C145.203 149.275 145.966 150.17 146.523 149.762C156.647 142.267 168.208 136.907 178.917 130.266C186.216 125.737 195.172 121.045 199.658 113.539L199.66 113.543Z" fill="#151923"/>
<defs>
<linearGradient id="paint0_linear_72_2" x1="113.215" y1="231.798" x2="168.646" y2="183.085" gradientUnits="userSpaceOnUse">
<stop stop-color="#2494E0"/>
<stop offset="1" stop-color="#1A71C6"/>
</linearGradient>
<linearGradient id="paint1_linear_72_2" x1="177.917" y1="134.227" x2="216.899" y2="201.421" gradientUnits="userSpaceOnUse">
<stop offset="0.34" stop-color="#1D4587"/>
<stop offset="0.53" stop-color="#0466B5"/>
</linearGradient>
<linearGradient id="paint2_linear_72_2" x1="210.084" y1="161.78" x2="213.228" y2="167.199" gradientUnits="userSpaceOnUse">
<stop stop-color="#2494E0"/>
<stop offset="1" stop-color="#1A71C6"/>
</linearGradient>
<linearGradient id="paint3_linear_72_2" x1="220.462" y1="164.26" x2="224.082" y2="170.5" gradientUnits="userSpaceOnUse">
<stop stop-color="#2494E0"/>
<stop offset="1" stop-color="#1A71C6"/>
</linearGradient>
<linearGradient id="paint4_linear_72_2" x1="233.477" y1="164.93" x2="239.421" y2="175.176" gradientUnits="userSpaceOnUse">
<stop stop-color="#2494E0"/>
<stop offset="1" stop-color="#1A71C6"/>
</linearGradient>
<linearGradient id="paint5_linear_72_2" x1="224.162" y1="177.079" x2="225.819" y2="179.934" gradientUnits="userSpaceOnUse">
<stop stop-color="#2494E0"/>
<stop offset="1" stop-color="#1A71C6"/>
</linearGradient>
<linearGradient id="paint6_linear_72_2" x1="52.7724" y1="182.71" x2="107.902" y2="123.654" gradientUnits="userSpaceOnUse">
<stop stop-color="#2494E0"/>
<stop offset="1" stop-color="#1A71C6"/>
</linearGradient>
<linearGradient id="paint7_linear_72_2" x1="89.8827" y1="40.7118" x2="151.069" y2="146.181" gradientUnits="userSpaceOnUse">
<stop offset="0.4" stop-color="#0466B5"/>
<stop offset="0.81" stop-color="#1D4587"/>
</linearGradient>
<linearGradient id="paint8_linear_72_2" x1="122.011" y1="73.8389" x2="125.439" y2="79.7472" gradientUnits="userSpaceOnUse">
<stop stop-color="#2494E0"/>
<stop offset="1" stop-color="#1A71C6"/>
</linearGradient>
<linearGradient id="paint9_linear_72_2" x1="118.457" y1="62.0974" x2="122.402" y2="68.8977" gradientUnits="userSpaceOnUse">
<stop stop-color="#2494E0"/>
<stop offset="1" stop-color="#1A71C6"/>
</linearGradient>
<linearGradient id="paint10_linear_72_2" x1="114.036" y1="44.9479" x2="120.492" y2="56.0778" gradientUnits="userSpaceOnUse">
<stop stop-color="#2494E0"/>
<stop offset="1" stop-color="#1A71C6"/>
</linearGradient>
<linearGradient id="paint11_linear_72_2" x1="107.999" y1="60.1329" x2="109.803" y2="63.242" gradientUnits="userSpaceOnUse">
<stop stop-color="#2494E0"/>
<stop offset="1" stop-color="#1A71C6"/>
</linearGradient>
</defs>
</svg>
