<svg width="205" height="222" viewBox="0 0 205 222" fill="none" xmlns="http://www.w3.org/2000/svg">
<path d="M142.436 161.151C144.348 165.949 145.811 171.331 146.519 176.679C146.675 177.871 146.786 179.039 146.873 180.223C146.943 180.956 146.937 181.681 146.976 182.429C146.98 182.479 146.995 182.573 146.976 182.632C147.01 183.965 146.979 185.313 146.88 186.618C146.849 186.835 146.852 187.087 146.821 187.304C146.761 187.989 146.678 188.649 146.592 189.294C146.567 189.38 146.547 189.445 146.55 189.53C146.429 190.272 146.282 190.975 146.132 191.69C146.118 191.757 146.076 191.79 146.109 191.867C145.638 193.918 144.95 195.833 144.004 197.52C143.653 198.158 143.281 198.771 142.84 199.342C141.761 200.861 140.453 202.172 138.856 203.198L138.736 203.306C138.193 203.632 137.64 203.907 137.068 204.206C135.831 204.778 134.508 205.226 133.008 205.492C123.306 207.319 111.932 202.968 101.557 195.713C97.9071 193.176 94.4255 190.269 91.1229 187.141L91.107 187.116C85.9805 182.231 81.4454 176.856 77.8652 171.387C77.3933 170.674 76.9161 169.953 76.4699 169.217C76.3434 168.988 75.9054 168.38 75.3466 167.648C74.7842 166.867 74.0742 165.958 73.4358 165.14C73.1976 164.811 72.9725 164.519 72.7618 164.259C72.2692 163.611 71.9303 163.163 71.8834 163.153L71.8556 163.12C71.7704 163.06 71.6975 162.975 71.6214 162.938L71.6003 162.906C71.5886 162.861 71.5449 162.803 71.5882 162.763C72.9172 157.918 74.9715 152.743 77.7205 147.951C79.7957 144.309 82.3151 140.879 85.2712 138.064C85.7025 137.638 86.1406 137.213 86.6078 136.815C89.4955 134.293 92.8096 132.334 96.4642 131.25C98.2743 130.673 100.2 130.343 102.22 130.264C118.297 129.562 135.447 143.793 142.441 161.159L142.436 161.151Z" fill="url(#paint0_linear_72_35)"/>
<path d="M142.436 161.151C144.348 165.95 145.811 171.331 146.519 176.68C146.675 177.871 146.786 179.039 146.873 180.223C146.943 180.957 146.938 181.681 146.976 182.429C146.98 182.479 146.995 182.573 146.976 182.632C147.011 183.965 146.98 185.313 146.881 186.619C146.849 186.835 146.852 187.087 146.821 187.304C146.761 187.99 146.679 188.65 146.592 189.295C146.567 189.38 146.547 189.446 146.55 189.53C146.429 190.273 146.282 190.975 146.132 191.69C146.118 191.757 146.076 191.79 146.109 191.867C145.606 193.904 144.908 195.769 143.988 197.496L144.009 197.528C143.659 198.167 143.286 198.78 142.845 199.35C141.766 200.869 140.459 202.18 138.862 203.207L138.741 203.314C138.198 203.64 137.645 203.915 137.073 204.214C135.836 204.786 134.514 205.235 133.013 205.5C123.311 207.328 111.937 202.977 101.562 195.722C106.824 196.628 112.677 197.715 118.256 198.339C114.273 196.29 110.426 193.928 107.063 191.89C98.1929 186.514 89.5872 179.943 81.4704 172.938C80.2472 172.479 79.0686 171.974 77.8734 171.382C76.1684 170.557 74.501 169.586 72.9351 168.498C71.8551 167.755 72.4617 166.325 73.5319 166.815C74.1311 167.087 74.7447 167.39 75.3548 167.643C77.084 168.452 78.8375 169.245 80.6532 169.975C80.6901 169.899 80.7963 169.858 80.935 169.929C81.5698 170.264 82.1901 170.569 82.8227 170.848C87.7321 172.637 92.658 173.648 96.923 172.182C100.355 170.995 107.22 167.212 104.942 161.492C101.721 153.474 89.3408 154.127 85.2699 156.499C80.9946 158.947 77.8328 162.878 73.4387 165.127C73.4387 165.127 73.4275 165.136 73.405 165.155C72.9323 165.412 72.4389 164.568 72.7647 164.246C77.5228 159.093 83.6628 150.809 92.6347 152.332C93.5845 152.496 94.7375 152.723 95.9458 153.053C95.4403 152.801 95.0152 152.098 95.4451 151.678C98.9496 147.945 102.632 143.362 107.217 140.469C106.916 140.371 106.617 140.302 106.3 140.179C100.052 138.417 93.4527 137.963 86.848 139.002C86.1971 139.11 85.6104 138.645 85.2808 138.052C85.7121 137.626 86.1501 137.201 86.6174 136.803C89.5051 134.281 92.8192 132.323 96.4738 131.238C98.2839 130.661 100.21 130.332 102.23 130.252C118.306 129.55 135.457 143.781 142.45 161.147L142.436 161.151ZM102.785 155.861C107.246 151.358 113.388 147.995 120.286 146.823C117.818 145.077 115.222 143.64 112.566 142.455C106.947 145.62 101.899 149.26 96.6172 153.047C96.4875 153.167 96.3376 153.149 96.181 153.131C98.3653 153.7 100.75 154.576 102.786 155.854L102.785 155.861ZM106.222 177.941C101.019 177.389 95.7935 176.741 90.5749 175.062C88.5022 174.893 86.3363 174.502 84.1516 173.835C91.8379 179.396 99.414 185.15 107.438 189.832C112.197 192.574 117.046 195.251 121.988 197.215C123.528 197.796 125.04 198.308 126.549 198.771C131.955 198.723 136.632 197.686 139.519 194.87C130.3 183.362 118.65 179.295 106.224 177.935L106.222 177.941ZM140.542 175.225C139.545 174.318 138.536 173.472 137.355 172.875C133.692 171.033 130.03 169.987 126.317 169.251C119.952 167.98 113.669 167.648 107.29 166.047C106.26 170.494 102.265 173.573 98.2316 174.599C97.9484 174.652 97.6197 174.687 97.3137 174.749C113.061 177.252 130.06 176.876 141.126 192.764C143.08 189.431 143.34 184.425 141.142 177.089C140.967 176.459 140.744 175.826 140.542 175.225ZM124.966 150.511C117.44 151.448 110.693 153.532 104.515 157.166C106.126 158.571 107.265 160.367 107.53 162.635C107.629 163.326 107.584 164.007 107.55 164.67C114.901 164.367 122.81 164.265 130.561 166.454C132.492 166.998 135.474 167.958 138.328 169.365C134.958 161.658 130.341 155.372 124.966 150.511Z" fill="#151923"/>
<path d="M132.638 151.672C131.413 152.72 133.626 155.285 134.843 154.242C136.066 153.2 133.854 150.628 132.638 151.672Z" fill="#1D4587"/>
<path d="M137.186 161.622C137.247 161.663 137.307 161.71 137.359 161.763C138.753 162.837 140.141 161.641 139.299 160.096C139.27 160.034 139.228 159.97 139.192 159.906C137.709 157.222 134.757 159.752 137.184 161.629L137.186 161.622Z" fill="#1D4587"/>
<path d="M141.026 168.779C140.09 169.581 141.785 171.555 142.727 170.754C143.656 169.951 141.969 167.978 141.026 168.779Z" fill="#1D4587"/>
<path d="M127.625 144.709C127.532 144.69 127.428 144.682 127.342 144.664C126.511 144.532 125.991 144.981 126.004 145.815C126.013 145.907 126.007 146.004 126.002 146.093C126.029 147.663 128.131 148.857 129.075 148.049C130.036 147.231 129.158 144.988 127.618 144.708L127.625 144.709Z" fill="#1D4587"/>
<path d="M70.5738 54.5421C75.1594 61.443 78.6273 69.9806 81.0422 78.6466C92.8699 92.0625 105.727 106.064 100.74 121.375C99.6109 124.831 98.138 128.096 96.4613 131.235C95.3778 133.242 94.2278 135.2 92.9894 137.146C87.2151 146.184 80.0441 154.392 74.4939 163.393C74.1977 163.84 73.9191 164.271 73.6441 164.75C73.1428 165.511 72.6745 166.313 72.2397 167.123C71.3286 168.74 68.0473 163.11 67.5553 161.96C67.1288 160.963 66.72 159.949 66.3126 158.929C66.2067 158.634 66.0766 158.356 65.9626 158.067C56.2587 134.178 49.4727 109.023 49.4916 85.8729C49.511 73.4169 48.4773 58.1574 54.4182 48.6241C58.1863 42.5656 66.4112 48.2882 70.5671 54.5407L70.5738 54.5421Z" fill="#1D4587"/>
<path d="M70.5734 54.5422C75.159 61.4431 78.6269 69.9807 81.0418 78.6467C92.8695 92.0626 105.726 106.064 100.739 121.375C99.6104 124.831 98.1376 128.096 96.4609 131.235C95.3774 133.242 94.2274 135.2 92.989 137.147C87.2147 146.184 80.0437 154.392 74.4935 163.393C79.6485 148.48 92.5894 139.387 96.7503 123.722C97.2439 121.899 97.2354 118.707 96.6488 114.843C91.6202 124.253 82.5846 130.032 72.8155 134.247C72.9029 138.928 72.8059 143.557 72.5139 148.117C72.1825 153.031 72.7542 159.566 70.7691 163.611C70.3298 164.475 68.8735 163.863 68.5321 162.793C68.3102 162.153 68.1754 161.497 68.0611 160.81C67.3511 159.9 66.664 158.982 65.977 158.063C56.2731 134.174 49.4871 109.019 49.5059 85.8691C49.5254 73.4131 48.4916 58.1537 54.4325 48.6203C58.2006 42.5618 66.4255 48.2844 70.5815 54.5369L70.5734 54.5422ZM68.5723 109.583C70.0307 112.918 70.9984 116.429 71.6532 119.868C71.9587 109.845 77.814 101.32 84.7056 95.8462C83.6695 92.4949 82.2619 87.8512 78.5718 88.2719C76.1012 88.5362 73.9976 89.8477 72.4986 91.572C68.3914 96.3169 69.3814 103.121 68.5737 109.576L68.5723 109.583ZM69.4045 132.569C69.3995 126.195 69.178 119.454 67.0054 112.731C66.0563 109.831 64.9797 106.806 63.1887 104.092C60.4378 99.963 60.5274 100.868 58.2419 102.581C60.1725 119.858 63.6362 141.978 67.8798 155.844C68.0333 153.845 68.3297 151.896 68.4813 150.106C68.928 144.308 69.42 138.527 69.4112 132.571L69.4045 132.569ZM94.9833 107.765C93.9531 104.352 92.5278 100.759 90.5636 97.2059C81.3303 103.362 74.5375 112.563 72.7304 124.889C72.7056 125.108 72.5495 125.187 72.3879 125.125C72.5375 126.51 72.6563 127.875 72.7235 129.188C72.7815 130.177 72.7473 131.14 72.7718 132.123C80.9685 124.151 90.6808 119.54 94.9833 107.765Z" fill="#151923"/>
<path d="M59.4837 88.2871C57.015 90.4086 61.4739 95.6146 63.9493 93.4946C66.4167 91.3798 61.951 86.1723 59.4837 88.2871Z" fill="url(#paint1_linear_72_35)"/>
<path d="M60.0548 77.9639C57.2053 80.4035 62.3565 86.4038 65.1993 83.9628C68.0474 81.5298 62.9043 75.5243 60.0548 77.9639Z" fill="url(#paint2_linear_72_35)"/>
<path d="M58.6168 62.6969C56.7032 64.3344 56.9658 67.8796 59.1986 70.4833C61.4367 73.0951 64.9013 73.8837 66.8135 72.253C68.7219 70.6074 68.4579 67.0689 66.2265 64.4584C63.9923 61.8614 60.5237 61.0581 58.6168 62.6969Z" fill="url(#paint3_linear_72_35)"/>
<path d="M71.8173 78.8921C71.7568 78.9144 71.7044 78.9313 71.6586 78.9497C69.534 79.6285 72.8448 83.4841 73.8344 81.4926C73.8643 81.45 73.8822 81.3979 73.9148 81.3419C74.4812 80.2041 73.028 78.5105 71.824 78.8935L71.8173 78.8921Z" fill="url(#paint4_linear_72_35)"/>
<path d="M171.39 154.832C173.095 160.585 174.09 167.167 174.098 173.828C174.103 175.302 174.047 176.77 173.95 178.264C173.896 179.189 173.781 180.107 173.695 181.052C173.697 181.108 173.693 181.226 173.655 181.309C173.475 183.002 173.194 184.709 172.829 186.385C172.757 186.663 172.703 186.987 172.644 187.268C172.439 188.146 172.226 188.995 172 189.841C171.935 189.953 171.903 190.037 171.893 190.154C171.601 191.112 171.29 192.031 170.978 192.957C170.945 193.048 170.887 193.091 170.902 193.185C169.933 195.879 168.687 198.424 167.135 200.738C166.568 201.61 165.966 202.454 165.282 203.253C163.592 205.357 161.63 207.256 159.346 208.83L159.159 208.986C158.39 209.495 157.607 209.932 156.802 210.412C155.063 211.346 153.231 212.163 151.202 212.75C138.058 216.747 123.773 213.197 111.295 205.787C106.922 203.203 102.8 200.12 98.981 196.723L98.9599 196.69C93.0346 191.387 87.9629 185.34 84.1774 179.019C83.6797 178.196 83.1767 177.364 82.7142 176.506C82.5841 176.228 82.1052 175.548 81.491 174.715C80.8828 173.819 80.1069 172.791 79.4092 171.856C79.1393 171.479 78.9106 171.138 78.6612 170.862C78.1281 170.108 77.7574 169.612 77.6958 169.606L77.6747 169.573C77.5694 169.509 77.4845 169.415 77.4032 169.37L77.3739 169.343C77.3785 169.288 77.3228 169.22 77.3903 169.165C79.9835 162.783 83.6054 155.856 88.0707 149.302C91.4511 144.328 95.3711 139.544 99.7847 135.435C100.427 134.837 101.098 134.196 101.77 133.624C106.029 129.916 110.754 126.857 115.77 124.837C118.249 123.799 120.873 123.037 123.562 122.595C144.948 118.907 165.171 133.998 171.411 154.83L171.39 154.832Z" fill="url(#paint5_linear_72_35)"/>
<path d="M171.389 154.832C173.095 160.585 174.09 167.167 174.098 173.828C174.103 175.302 174.047 176.77 173.95 178.264C173.896 179.188 173.781 180.107 173.694 181.052C173.696 181.108 173.693 181.226 173.654 181.309C173.474 183.002 173.193 184.709 172.828 186.385C172.756 186.663 172.702 186.987 172.643 187.268C172.438 188.146 172.226 188.995 172 189.841C171.934 189.953 171.903 190.037 171.892 190.154C171.601 191.112 171.29 192.031 170.977 192.957C170.944 193.047 170.886 193.091 170.901 193.185C169.871 195.873 168.631 198.357 167.105 200.711L167.134 200.738C166.568 201.61 165.965 202.454 165.281 203.253C163.591 205.356 161.63 207.256 159.345 208.83L159.159 208.986C158.389 209.495 157.607 209.932 156.801 210.412C155.063 211.346 153.23 212.163 151.202 212.75C138.058 216.747 123.773 213.196 111.294 205.787C118.099 206.026 125.644 206.398 132.928 206.214C128.017 204.299 123.331 201.977 119.235 199.967C108.424 194.694 98.181 187.844 88.6549 180.368C87.128 179.993 85.6473 179.564 84.1702 179.017C82.0519 178.266 80.0291 177.326 78.1324 176.217C76.8462 175.459 77.8848 173.533 79.2153 173.98C79.9542 174.218 80.7127 174.496 81.4772 174.712C83.6293 175.435 85.8138 176.137 88.0861 176.752C88.1514 176.64 88.2981 176.573 88.4649 176.643C89.2527 176.948 90.0261 177.221 90.8103 177.476C96.9974 178.898 103.323 179.323 109.223 176.719C113.971 174.614 123.714 168.621 121.688 161.767C118.825 152.142 102.332 155.13 96.5352 158.844C90.4368 162.697 85.5788 168.227 79.3821 171.851C79.3821 171.851 79.3623 171.867 79.3227 171.901C78.6531 172.298 78.1447 171.326 78.6274 170.855C85.8256 163.483 95.3789 151.901 106.992 152.281C108.209 152.334 109.693 152.414 111.255 152.622C110.621 152.385 110.186 151.561 110.828 150.962C116.116 145.613 121.782 139.157 128.337 134.687C127.967 134.623 127.569 134.589 127.171 134.492C119.211 133.334 110.569 133.904 101.642 136.362C100.757 136.623 100.066 136.122 99.7389 135.419C100.381 134.82 101.053 134.179 101.724 133.608C105.984 129.9 110.708 126.841 115.724 124.82C118.203 123.783 120.827 123.02 123.517 122.578C144.902 118.891 165.126 133.982 171.365 154.813L171.389 154.832ZM119.853 154.996C126.54 148.502 135.254 143.158 144.581 140.484C141.62 138.691 138.437 137.326 135.117 136.282C127.141 141.263 119.826 146.76 112.182 152.496C111.994 152.659 111.797 152.666 111.593 152.672C114.368 153.023 117.393 153.713 119.855 154.989L119.853 154.996ZM120.565 182.425C113.772 182.628 106.978 182.706 100.38 181.477C97.6613 181.627 94.8659 181.509 92.0884 181.039C101.282 186.769 110.311 192.751 120.114 197.303C125.938 199.961 131.875 202.51 138.079 204.152C140.012 204.62 141.927 205.007 143.848 205.332C151.012 204.327 157.374 202.211 161.684 198.13C151.489 185.119 136.766 181.993 120.566 182.418L120.565 182.425ZM166.436 173.012C165.281 172.03 164.086 171.137 162.622 170.593C158.099 168.892 153.436 168.194 148.657 167.912C140.451 167.401 132.213 168.07 124.036 167.153C121.909 172.975 116.08 177.576 110.566 179.569C110.196 179.673 109.748 179.775 109.334 179.919C129.729 180.365 152.282 176.936 164.167 195.174C167.328 190.615 168.551 184.212 166.909 175.289C166.785 174.516 166.603 173.752 166.443 173.013L166.436 173.012ZM150.107 144.364C139.993 146.859 130.701 150.665 121.907 156.355C123.783 157.864 124.98 159.944 124.932 162.775C124.939 163.642 124.773 164.501 124.608 165.353C134.378 163.7 144.857 162.195 154.741 163.63C157.202 163.978 160.971 164.677 164.511 165.977C161.384 156.778 156.383 149.594 150.107 144.364Z" fill="#151923"/>
<path d="M160.074 144.497C158.278 146.04 160.748 148.91 162.543 147.374C164.338 145.837 161.869 142.96 160.074 144.497Z" fill="#1D4587"/>
<path d="M164.363 156.348C164.436 156.398 164.503 156.447 164.569 156.496C166.228 157.611 168.279 155.849 167.428 154.044C167.381 153.972 167.356 153.89 167.322 153.82C165.826 150.665 161.47 154.395 164.355 156.353L164.363 156.348Z" fill="#1D4587"/>
<path d="M168.2 164.754C166.829 165.932 168.719 168.143 170.103 166.967C171.48 165.79 169.579 163.57 168.2 164.754Z" fill="#1D4587"/>
<path d="M154.646 136.526C154.526 136.529 154.402 136.524 154.283 136.527C153.223 136.486 152.448 137.155 152.318 138.209C152.299 138.331 152.289 138.448 152.277 138.571C152.035 140.558 154.605 141.718 155.995 140.515C157.397 139.322 156.64 136.602 154.644 136.533L154.646 136.526Z" fill="#1D4587"/>
<path d="M128.385 23.2261C131.997 30.3767 133.164 40.2682 132.688 50.8347C144.063 63.381 156.701 76.2268 142.015 99.2504C138.701 104.441 134.966 109.543 130.966 114.575C128.401 117.787 125.757 120.981 122.983 124.191C110.09 139.123 95.4898 153.571 82.9449 168.339C82.287 169.08 81.6761 169.797 81.0393 170.571C79.9452 171.829 78.8722 173.119 77.8204 174.441C75.6903 177.046 73.4393 170.997 73.2557 169.674C73.0905 168.529 72.9619 167.344 72.8401 166.159C72.8151 165.812 72.7416 165.496 72.7152 165.156C69.4493 137.492 71.1466 106.729 82.1009 75.4615C87.9834 58.6423 93.6427 38.5234 107.001 22.8722C115.497 12.9038 125.129 16.7432 128.375 23.238L128.385 23.2261Z" fill="url(#paint6_linear_72_35)"/>
<path d="M128.384 23.2259C131.996 30.3766 133.163 40.268 132.688 50.8346C144.063 63.3808 156.701 76.2266 142.015 99.2502C138.701 104.441 134.965 109.543 130.965 114.575C128.401 117.787 125.756 120.981 122.983 124.191C110.09 139.122 95.4894 153.571 82.9445 168.339C97.6868 145.78 121.318 127.409 134.952 104.276C136.54 101.594 138.037 97.2791 138.963 92.3565C127.012 107.423 110.769 119.482 94.1835 129.78C92.0842 136.07 89.7693 142.356 87.189 148.642C84.3749 155.445 82.1519 163.991 77.274 170.383C76.2043 171.757 74.3202 171.621 74.3091 170.341C74.2784 169.588 74.381 168.765 74.5283 167.895C73.8986 167.002 73.3121 166.07 72.7162 165.149C69.4503 137.485 71.1476 106.722 82.1019 75.4547C87.9844 58.6355 93.6437 38.5165 107.002 22.8654C115.498 12.897 125.13 16.7364 128.376 23.2312L128.384 23.2259ZM99.45 98.4733C100.069 102.282 99.8548 106.572 99.211 110.911C104.394 97.2332 117.169 82.9677 130.063 72.3291C130.077 68.2973 130.179 62.6784 124.459 64.9915C120.645 66.5031 116.882 69.2747 113.824 72.3061C105.438 80.6501 103.716 89.3709 99.45 98.4733ZM89.8709 129.107C92.8595 120.505 95.707 111.511 95.6207 103.458C95.5799 99.9871 95.3859 96.4144 93.9872 93.5945C91.8192 89.3151 91.5245 90.4889 87.2874 93.8873C82.0334 116.304 76.7855 144.523 76.6054 161.245C77.7842 158.483 79.148 155.704 80.2145 153.212C83.6161 145.172 87.0792 137.136 89.8723 129.101L89.8709 129.107ZM139.828 83.5609C139.879 79.4531 139.451 75.2658 138.188 71.3993C121.461 84.0693 106.966 99.6846 98.4559 117.182C98.3137 117.494 98.0549 117.664 97.8392 117.66C97.4128 119.463 96.9572 121.238 96.4146 122.995C96.0288 124.303 95.5319 125.609 95.1166 126.925C111.137 112.293 127.842 101.496 139.827 83.5676L139.828 83.5609Z" fill="#151923"/>
<path d="M95.8961 74.0166C91.2019 78.0313 95.4262 82.9579 100.12 78.9431C104.809 74.9203 100.586 69.9871 95.8961 74.0166Z" fill="url(#paint7_linear_72_35)"/>
<path d="M101.609 59.8074C96.2075 64.4348 101.071 70.1095 106.473 65.4821C111.876 60.8481 107.011 55.1801 101.609 59.8074Z" fill="url(#paint8_linear_72_35)"/>
<path d="M106.657 39.8676C103.023 42.9875 101.747 47.6483 103.863 50.109C105.971 52.5749 110.777 52.025 114.411 48.9051C118.052 45.7866 119.329 41.1258 117.214 38.6585C115.098 36.1979 110.298 36.7492 106.659 39.861L106.657 39.8676Z" fill="url(#paint9_linear_72_35)"/>
<path d="M118.764 55.5199C118.669 55.5766 118.582 55.6214 118.496 55.6662C115.002 57.5867 118.132 61.2371 120.562 58.0674C120.619 57.9955 120.685 57.9117 120.745 57.8265C122.12 56.0274 120.753 54.4218 118.766 55.5132L118.764 55.5199Z" fill="url(#paint10_linear_72_35)"/>
<path d="M88.2709 184.065C96.4715 191.269 104.833 198.34 111.237 207.255C112.635 209.181 110.124 211.336 108.431 209.655C97.1291 198.527 88.8859 186.127 74.7482 177.707C67.1903 173.199 60.1034 167.876 59.7096 158.425C59.691 158.114 59.7555 157.807 59.8168 157.547C58.46 157.926 56.9413 157.545 55.9654 156.405C54.6024 154.815 54.7861 152.438 56.3703 151.073C57.9612 149.71 60.3379 149.894 61.7023 151.478C62.6782 152.618 62.8149 154.231 62.2082 155.528C62.2483 155.537 62.2996 155.492 62.3394 155.535C63.5215 155.957 64.7279 156.496 65.8743 157.155C66.6572 157.549 67.4421 158.035 68.2026 158.536C68.5054 158.69 68.7983 158.891 69.0656 159.115C69.5973 159.442 70.1258 159.818 70.646 160.234L70.6632 160.252C70.7326 160.288 70.7883 160.355 70.883 160.403L70.8988 160.427C71.419 160.843 71.9377 161.266 72.4561 161.724C73.5172 162.623 74.5735 163.612 75.5718 164.645C80.2825 169.415 84.3069 175.263 86.8717 180.847L86.8876 180.871C87.426 181.933 87.857 183.008 88.2575 184.062L88.2709 184.065Z" fill="#151923"/>
<path d="M35.6076 140.491C27.8618 134.247 23.5064 126.047 17.0875 118.734C15.6048 117.048 13.274 119.178 14.5 120.956C24.5228 135.558 38.6393 148.078 55.0432 154.977C55.6332 155.226 56.0676 154.319 55.5387 153.977C48.7231 149.625 41.9222 145.569 35.609 140.484L35.6076 140.491Z" fill="#151923"/>
<path d="M24.5808 100.521C23.3513 99.7263 21.6837 101.422 22.8101 102.51C37.605 116.757 47.3895 135.462 58.5939 152.586C58.9481 153.128 59.7648 152.462 59.3691 151.918C52.1919 142.094 46.9553 131.036 40.5545 120.704C36.1873 113.661 31.6278 105.069 24.5808 100.521Z" fill="#151923"/>
<defs>
<linearGradient id="paint0_linear_72_35" x1="141.84" y1="209.148" x2="86.6191" y2="144.719" gradientUnits="userSpaceOnUse">
<stop stop-color="#2494E0"/>
<stop offset="1" stop-color="#1A71C6"/>
</linearGradient>
<linearGradient id="paint1_linear_72_35" x1="64.7926" y1="91.5352" x2="58.6405" y2="90.2465" gradientUnits="userSpaceOnUse">
<stop stop-color="#2494E0"/>
<stop offset="1" stop-color="#1A71C6"/>
</linearGradient>
<linearGradient id="paint2_linear_72_35" x1="66.1671" y1="81.7084" x2="59.0722" y2="80.2222" gradientUnits="userSpaceOnUse">
<stop stop-color="#2494E0"/>
<stop offset="1" stop-color="#1A71C6"/>
</linearGradient>
<linearGradient id="paint3_linear_72_35" x1="68.3082" y1="68.65" x2="57.1208" y2="66.3066" gradientUnits="userSpaceOnUse">
<stop stop-color="#2494E0"/>
<stop offset="1" stop-color="#1A71C6"/>
</linearGradient>
<linearGradient id="paint4_linear_72_35" x1="74.0729" y1="80.7537" x2="70.8832" y2="80.0856" gradientUnits="userSpaceOnUse">
<stop stop-color="#2494E0"/>
<stop offset="1" stop-color="#1A71C6"/>
</linearGradient>
<linearGradient id="paint5_linear_72_35" x1="158.791" y1="212.509" x2="97.0732" y2="140.5" gradientUnits="userSpaceOnUse">
<stop stop-color="#2494E0"/>
<stop offset="1" stop-color="#1A71C6"/>
</linearGradient>
<linearGradient id="paint6_linear_72_35" x1="143.833" y1="105.537" x2="77.0625" y2="91.5501" gradientUnits="userSpaceOnUse">
<stop offset="0.4" stop-color="#0466B5"/>
<stop offset="0.81" stop-color="#1D4587"/>
</linearGradient>
<linearGradient id="paint7_linear_72_35" x1="101.81" y1="77.2728" x2="94.2006" y2="75.6788" gradientUnits="userSpaceOnUse">
<stop stop-color="#2494E0"/>
<stop offset="1" stop-color="#1A71C6"/>
</linearGradient>
<linearGradient id="paint8_linear_72_35" x1="108.424" y1="63.5663" x2="99.6571" y2="61.7299" gradientUnits="userSpaceOnUse">
<stop stop-color="#2494E0"/>
<stop offset="1" stop-color="#1A71C6"/>
</linearGradient>
<linearGradient id="paint9_linear_72_35" x1="117.502" y1="45.8459" x2="103.573" y2="42.9282" gradientUnits="userSpaceOnUse">
<stop stop-color="#2494E0"/>
<stop offset="1" stop-color="#1A71C6"/>
</linearGradient>
<linearGradient id="paint10_linear_72_35" x1="121.087" y1="57.626" x2="117.102" y2="56.7911" gradientUnits="userSpaceOnUse">
<stop stop-color="#2494E0"/>
<stop offset="1" stop-color="#1A71C6"/>
</linearGradient>
</defs>
</svg>
