<svg width="415" height="510" viewBox="0 0 415 510" fill="none" xmlns="http://www.w3.org/2000/svg">
<path d="M390.092 410.16C388.474 412.095 386.355 413.986 383.929 415.552C383.394 415.9 382.841 416.225 382.27 416.546C381.922 416.743 381.556 416.921 381.186 417.113C381.164 417.126 381.124 417.148 381.083 417.157C380.414 417.492 379.714 417.8 379.005 418.072C378.88 418.112 378.755 418.17 378.63 418.21C378.256 418.348 377.886 418.473 377.515 418.593C377.457 418.598 377.417 418.607 377.373 418.629C376.945 418.754 376.516 418.865 376.093 418.977C376.053 418.986 376.017 418.977 375.99 419.008C374.741 419.307 373.466 419.481 372.19 419.494C371.713 419.503 371.24 419.494 370.754 419.454C369.519 419.374 368.279 419.146 367.066 418.736L366.959 418.709C366.557 418.562 366.178 418.402 365.777 418.237C364.956 417.866 364.145 417.429 363.364 416.876C358.24 413.322 355.546 407.609 354.765 401.606C354.484 399.5 354.458 397.369 354.636 395.264V395.25C354.921 391.977 355.706 388.823 356.955 386.04C357.12 385.675 357.281 385.309 357.464 384.948C357.526 384.841 357.642 384.515 357.776 384.109C357.932 383.69 358.092 383.182 358.235 382.727C358.298 382.548 358.356 382.383 358.391 382.236C358.512 381.879 358.592 381.634 358.579 381.612V381.594C358.579 381.54 358.588 381.491 358.579 381.456V381.438C358.605 381.429 358.614 381.393 358.65 381.402C361.701 380.787 365.237 380.399 368.868 380.381C371.628 380.367 374.465 380.581 377.19 381.121C377.587 381.197 378.006 381.282 378.403 381.375C380.945 381.96 383.371 382.852 385.512 384.096C386.587 384.702 387.595 385.416 388.505 386.228C395.819 392.672 395.962 403.126 390.115 410.16H390.092Z" fill="url(#paint0_linear_72_105)"/>
<path d="M388.483 386.228C387.573 385.416 386.565 384.702 385.49 384.096C383.354 382.852 380.923 381.96 378.381 381.375C377.984 381.282 377.565 381.201 377.168 381.121C377.008 381.398 377.021 381.754 377.36 381.991C380.745 384.462 383.367 387.28 385.165 390.273C385.241 390.433 385.339 390.576 385.419 390.719C381.958 389.528 378.029 389.109 374.604 388.56C374.202 388.484 374.028 388.828 374.113 389.095C373.756 388.52 373.373 387.989 373.052 387.561C369.947 383.503 363.061 382.963 358.37 382.236C358.057 382.178 357.848 382.588 358.178 382.718C358.178 382.718 358.19 382.721 358.213 382.727C361.26 383.993 364.631 384.355 367.735 385.527C370.706 386.638 376.397 391.571 373.689 394.813C371.758 397.114 366.852 395.197 364.761 394.068C362.169 392.663 360.555 390.398 359.351 387.954C359.221 387.624 359.11 387.298 358.998 386.955C358.981 386.879 358.914 386.848 358.851 386.848C358.441 385.924 358.089 385.015 357.754 384.109C357.62 383.797 357.509 383.471 357.388 383.164C357.179 382.602 356.189 382.7 356.269 383.32C356.394 384.23 356.617 385.139 356.933 386.04C357.147 386.674 357.402 387.276 357.692 387.891C357.625 392.904 357.99 398.015 359.083 402.948C359.493 404.821 359.953 406.971 360.631 409.098C358.53 406.65 356.559 403.987 354.748 401.606C355.529 407.609 358.222 413.326 363.347 416.876C364.127 417.429 364.939 417.866 365.76 418.237C366.161 418.402 366.54 418.562 366.941 418.709L367.049 418.736C368.262 419.146 369.501 419.374 370.737 419.454C371.223 419.499 371.696 419.503 372.173 419.494V419.481C373.457 419.45 374.711 419.289 375.973 419.008C376 418.981 376.035 418.986 376.075 418.977C376.504 418.865 376.927 418.758 377.355 418.629C377.396 418.607 377.436 418.598 377.498 418.593C377.868 418.473 378.238 418.348 378.613 418.21C378.738 418.17 378.863 418.112 378.988 418.072C379.697 417.8 380.397 417.492 381.066 417.157C381.106 417.148 381.146 417.126 381.169 417.113C381.539 416.916 381.905 416.743 382.252 416.546C382.823 416.225 383.376 415.9 383.911 415.552C386.338 413.982 388.456 412.095 390.075 410.16C395.922 403.126 395.779 392.672 388.465 386.228H388.483ZM374.184 389.22C374.242 389.287 374.305 389.354 374.412 389.381C378.635 390.647 382.681 391.852 386.721 393.404C387.27 394.782 387.658 396.191 387.832 397.623C384.255 395.067 379.875 393.346 375.643 392.588C375.42 391.446 374.831 390.251 374.18 389.216L374.184 389.22ZM371.602 417.028C368.913 416.515 366.362 414.838 363.998 412.626C363.583 411.895 363.186 411.15 362.821 410.378C361.683 407.876 360.956 405.245 360.305 402.627C359.226 398.207 358.882 393.711 358.405 389.225C359.007 390.282 359.748 391.267 360.559 392.159C361.955 394.706 363.877 397.007 365.844 399.282C370.527 404.714 373.493 410.481 371.598 417.023L371.602 417.028ZM381.383 413.442C378.586 416.1 375.915 417.189 373.373 417.184C376.7 408.835 369.154 401.936 363.628 394.858C363.793 394.969 363.953 395.094 364.101 395.197C366.371 396.615 369.671 397.516 372.387 396.878C374.336 399.888 376.878 402.547 378.979 405.468C380.21 407.167 381.258 408.924 381.9 410.869C382.11 411.498 382.119 412.118 382.083 412.742C381.86 412.969 381.624 413.215 381.383 413.438V413.442ZM384.112 410.432C383.595 408.92 382.801 407.466 382.239 406.543C380.005 402.832 376.53 399.603 373.199 396.651C373.556 396.508 373.917 396.361 374.229 396.155C375.273 395.504 375.701 394.608 375.723 393.609C380.25 395.281 384.233 397.556 387.961 400.428C387.809 403.8 386.583 407.203 384.108 410.432H384.112Z" fill="#151923"/>
<path d="M390.7 403.862C389.638 403.612 389.277 405.133 390.338 405.383C391.4 405.633 391.761 404.112 390.7 403.862Z" fill="#1D4587"/>
<path d="M387.582 408.117C387.582 408.153 387.586 408.188 387.586 408.22C387.64 409.049 388.857 409.335 389.276 408.621C389.294 408.59 389.312 408.563 389.33 408.532C390.061 407.279 387.488 406.672 387.582 408.117Z" fill="#1D4587"/>
<path d="M385.588 411.404C384.772 411.212 384.495 412.381 385.311 412.572C386.128 412.764 386.404 411.596 385.588 411.404Z" fill="#1D4587"/>
<path d="M392.086 400.134C392.051 400.089 392.024 400.049 391.988 400.009C391.703 399.639 391.243 399.532 390.824 399.732C390.775 399.755 390.73 399.777 390.681 399.804C389.892 400.192 390.186 401.338 391.011 401.534C391.836 401.73 392.617 400.834 392.082 400.134H392.086Z" fill="#1D4587"/>
<path d="M409.515 347.052C402.08 346.891 394.73 350.967 388.366 353.938C376.525 359.464 366.606 368.272 358.61 377.972C358.507 378.088 358.422 378.209 358.315 378.325C357.972 378.735 357.624 379.145 357.298 379.56C356.919 380.033 355.465 382.727 356.683 382.718C357.294 382.704 357.9 382.709 358.502 382.727C358.864 382.727 359.203 382.736 359.564 382.749C366.566 382.878 373.854 383.868 380.972 384.078C382.501 384.123 384 384.127 385.49 384.096C387.822 384.033 390.128 383.859 392.38 383.498C402.357 381.888 403.949 373.254 405.693 365.177C409.083 362.113 411.937 358.643 413.48 355.106C414.885 351.904 414.243 347.15 409.515 347.047V347.052Z" fill="url(#paint1_linear_72_105)"/>
<path d="M409.515 347.052C402.08 346.891 394.73 350.967 388.366 353.938C376.525 359.464 366.606 368.272 358.609 377.972C358.431 378.476 358.257 378.976 358.096 379.489C357.797 379.698 357.521 379.912 357.293 380.158C356.892 380.555 357.213 381.299 357.847 381.273C360.772 381.121 363.859 379.324 366.521 378.285C368.974 377.312 371.373 376.246 373.733 375.096C380.106 378.102 386.97 380.434 393.95 380.251C392.237 381.42 390.605 382.187 389.463 382.423C379.647 384.457 369.411 381.308 359.564 382.758C366.566 382.887 373.853 383.877 380.971 384.087C382.501 384.132 384 384.136 385.489 384.105C387.822 384.042 390.127 383.868 392.38 383.507C402.357 381.897 403.949 373.263 405.693 365.186C409.082 362.122 411.937 358.652 413.48 355.115C414.885 351.913 414.242 347.159 409.515 347.056V347.052ZM395.395 364.762C396.924 364.967 398.503 365.516 399.703 366.47C401.514 367.884 399.748 369.574 398.485 370.801C392.71 369.275 385.819 368.905 380.57 371.175C382.046 370.087 383.424 368.847 384.495 367.447C388.143 366.238 391.193 364.2 395.395 364.758V364.762ZM363.756 377.107C362.775 377.473 361.646 377.816 360.563 378.227C365.812 373.165 375.61 366.452 383.603 361.529C385.471 362.059 385.895 361.81 384.972 363.928C384.361 365.311 383.281 366.479 382.211 367.563C379.718 370.065 376.369 371.764 373.117 373.298C370.08 374.721 366.914 375.907 363.76 377.107H363.756ZM374.799 374.574C375.285 374.324 375.789 374.11 376.27 373.851C376.922 373.512 377.559 373.138 378.206 372.745C378.246 372.826 378.349 372.866 378.474 372.826C385.552 370.618 393.187 371.216 400.332 373.539C399.364 375.194 398.142 376.639 396.849 377.879C388.972 378.927 382.416 376.037 374.799 374.574Z" fill="#151923"/>
<path d="M391.444 358.621C389.294 358.112 388.567 361.194 390.712 361.703C392.862 362.211 393.593 359.129 391.444 358.621Z" fill="url(#paint2_linear_72_105)"/>
<path d="M396.96 356.386C394.485 355.798 393.646 359.348 396.121 359.936C398.597 360.525 399.44 356.975 396.96 356.386Z" fill="url(#paint3_linear_72_105)"/>
<path d="M404.145 352.145C402.477 351.748 400.782 352.707 400.417 354.246C400.051 355.789 401.135 357.403 402.803 357.8C404.471 358.197 406.166 357.238 406.531 355.695C406.897 354.156 405.809 352.537 404.141 352.145H404.145Z" fill="url(#paint4_linear_72_105)"/>
<path d="M401.577 361.444C401.545 361.426 401.51 361.408 401.478 361.39C400.216 360.681 399.672 362.965 401.122 362.893C401.157 362.893 401.193 362.893 401.233 362.893C402.058 362.853 402.295 361.85 401.577 361.448V361.444Z" fill="url(#paint5_linear_72_105)"/>
<path d="M351.402 397.824V397.841C350.8 400.062 349.979 402.23 348.922 404.268C345.939 410.084 341.207 414.887 334.914 416.506C334.437 416.631 333.946 416.734 333.478 416.805C333.17 416.854 332.862 416.89 332.541 416.921C332.166 416.948 331.796 416.966 331.422 416.97C330.927 416.974 330.436 416.948 329.963 416.899C328.875 416.8 327.805 416.573 326.792 416.234C326.315 416.091 325.856 415.926 325.387 415.708C323.724 415.008 322.149 414.018 320.713 412.813C320.664 412.769 320.615 412.72 320.571 412.697C320.25 412.421 319.933 412.144 319.616 411.85C319.268 411.533 318.934 411.217 318.59 410.86C318.265 410.525 317.93 410.169 317.623 409.816C317.328 409.486 317.038 409.138 316.762 408.79C314.715 406.23 313.078 403.349 311.999 400.562C311.905 400.321 311.811 400.071 311.736 399.835C311.646 399.59 311.566 399.367 311.49 399.126C308.431 389.622 312.449 378.994 321.931 375.274C323.122 374.81 324.366 374.471 325.633 374.266C328.161 373.838 330.851 373.874 333.522 374.275C333.942 374.333 334.388 374.418 334.802 374.498C337.639 375.015 340.466 375.916 343.138 377.009C346.657 378.454 349.93 380.242 352.673 382.075C352.713 382.08 352.704 382.12 352.718 382.138V382.156C352.696 382.191 352.687 382.249 352.664 382.303V382.321C352.642 382.339 352.624 382.62 352.606 383.025C352.606 383.195 352.58 383.387 352.566 383.592C352.535 384.105 352.517 384.702 352.504 385.197C352.481 385.675 352.468 386.036 352.486 386.174C352.535 386.602 352.571 387.048 352.566 387.49C352.767 390.826 352.352 394.358 351.402 397.815V397.824Z" fill="url(#paint6_linear_72_105)"/>
<path d="M353.213 384.364C352.981 384.64 352.754 384.917 352.504 385.202C351.839 385.992 351.153 386.777 350.434 387.557C350.372 387.53 350.278 387.535 350.238 387.606C350.024 387.9 349.774 388.19 349.525 388.485C347.446 390.514 345.056 392.186 342.032 392.606C339.579 392.949 334.089 392.994 333.085 389.872C331.658 385.501 339.026 382.669 342.313 382.714C345.738 382.74 349.141 383.686 352.566 383.597L352.62 383.606C352.972 383.597 352.914 383.088 352.606 383.03C347.79 381.92 340.895 379.788 336.399 382.718C335.917 383.017 335.373 383.418 334.802 383.855C334.994 383.614 334.923 383.2 334.521 383.124C330.994 382.334 327.029 381.211 323.224 381.072C323.363 380.961 323.501 380.845 323.639 380.729C326.489 378.37 330.084 376.519 334.285 375.332C334.704 375.221 334.843 374.855 334.794 374.503C334.379 374.423 333.933 374.342 333.514 374.28C330.838 373.878 328.153 373.843 325.624 374.271C324.357 374.476 323.108 374.819 321.922 375.279C312.44 379.003 308.422 389.631 311.481 399.131C311.557 399.371 311.638 399.594 311.727 399.84C311.803 400.08 311.896 400.326 311.99 400.567C313.069 403.354 314.706 406.235 316.753 408.795C317.03 409.143 317.32 409.491 317.614 409.821C317.922 410.173 318.252 410.53 318.582 410.865C318.925 411.221 319.255 411.534 319.607 411.855C319.924 412.149 320.241 412.426 320.562 412.702C320.611 412.729 320.656 412.773 320.705 412.818C322.167 413.987 323.72 414.977 325.383 415.695V415.713C325.847 415.931 326.306 416.096 326.783 416.239C327.8 416.578 328.866 416.805 329.954 416.903C330.427 416.952 330.918 416.979 331.413 416.975C331.788 416.975 332.158 416.948 332.532 416.926C332.858 416.894 333.161 416.863 333.469 416.81C333.937 416.738 334.428 416.636 334.905 416.511C341.198 414.892 345.93 410.089 348.914 404.273C346.273 405.968 343.37 407.939 340.431 409.616C341.858 407.707 343.125 405.678 344.213 403.934C347.098 399.309 349.373 394.234 351.157 389.091C351.661 388.587 352.134 388.057 352.562 387.503C353.213 386.714 353.762 385.853 354.23 384.975C354.551 384.368 353.623 383.891 353.209 384.368L353.213 384.364ZM320.959 383.307C325.472 383.316 329.834 383.668 334.41 384.029C334.513 384.043 334.606 384.002 334.682 383.953C333.679 384.752 332.648 385.737 332.015 386.839C327.635 385.943 322.729 385.978 318.327 387.178C319.037 385.8 319.924 384.506 320.959 383.307ZM317.19 401.748C315.977 397.485 316.053 393.52 317.154 390.006C321.837 388.52 326.534 387.767 331.551 387.847C331.208 388.877 331.284 389.961 332.051 391.031C332.291 391.375 332.572 391.665 332.871 391.937C328.55 393.645 323.987 395.589 320.428 398.502C319.541 399.242 318.243 400.402 317.186 401.748H317.19ZM325.089 412.88C322.636 411.859 320.45 409.705 318.715 405.905C318.55 405.553 318.43 405.232 318.292 404.906C318.501 404.264 318.738 403.64 319.166 403.069C320.517 401.32 322.181 399.947 323.987 398.68C327.114 396.513 330.583 394.818 333.58 392.499C335.984 394.202 339.512 394.572 342.233 394.019C342.433 393.988 342.616 393.921 342.817 393.872C334.834 398.921 324.955 403.028 325.084 412.88H325.089ZM343.156 403.1C341.555 405.539 339.878 407.934 337.84 410.044C337.211 410.686 336.551 411.302 335.886 411.899C332.746 413.219 329.665 413.933 326.864 413.402C327.452 405.977 332.474 401.236 339.035 397.52C341.782 395.968 344.494 394.358 346.809 392.325C347.932 391.714 348.994 390.982 349.966 390.162C347.848 394.546 345.85 399.028 343.156 403.1Z" fill="#151923"/>
<path d="M313.239 392.445C314.363 392.605 314.144 394.3 313.025 394.144C311.901 393.984 312.115 392.284 313.239 392.445Z" fill="#1D4587"/>
<path d="M314.684 398.02C314.667 398.055 314.649 398.087 314.64 398.122C314.279 398.947 312.994 398.769 312.851 397.868C312.847 397.832 312.842 397.792 312.834 397.757C312.593 396.187 315.309 396.575 314.684 398.02Z" fill="#1D4587"/>
<path d="M315.393 402.167C316.258 402.292 316.093 403.595 315.228 403.47C314.367 403.349 314.527 402.047 315.393 402.167Z" fill="#1D4587"/>
<path d="M313.274 388.087C313.319 388.056 313.368 388.025 313.412 387.998C313.827 387.726 314.313 387.798 314.643 388.172C314.683 388.212 314.715 388.257 314.755 388.297C315.379 389.002 314.67 390.059 313.796 389.938C312.917 389.813 312.494 388.591 313.274 388.087Z" fill="#1D4587"/>
<path d="M305.158 336.303C305.447 340.116 307.111 344.358 309.466 348.421C308.302 356.471 306.776 364.981 316.432 370.159C318.609 371.327 320.91 372.344 323.287 373.263C324.803 373.847 326.351 374.4 327.934 374.926C335.32 377.375 343.169 379.177 350.403 381.656C350.778 381.777 351.13 381.893 351.501 382.026C352.125 382.232 352.749 382.455 353.374 382.691C354.623 383.15 354.11 380.14 353.9 379.569C353.717 379.07 353.512 378.566 353.307 378.057C353.244 377.91 353.2 377.767 353.137 377.624C348.472 365.757 341.51 354.005 331.373 344.545C325.923 339.456 319.866 332.99 312.177 330.38C307.285 328.717 304.885 332.842 305.158 336.294V336.303Z" fill="url(#paint7_linear_72_105)"/>
<path d="M305.158 336.303C305.447 340.117 307.111 344.358 309.466 348.421C308.302 356.471 306.776 364.981 316.432 370.159C318.609 371.327 320.91 372.344 323.287 373.263C324.803 373.847 326.351 374.4 327.934 374.926C335.32 377.375 343.169 379.177 350.403 381.656C340.824 376.675 329.161 375.76 319.826 370.252C318.738 369.61 317.346 368.303 316.017 366.595C323.118 369.356 331.016 369.762 338.66 369.374C340.663 371.305 342.741 373.178 344.904 374.975C347.25 376.92 349.766 379.712 352.714 380.938C353.351 381.197 353.954 380.631 353.69 380.118C353.543 379.81 353.338 379.511 353.111 379.208C353.133 378.686 353.133 378.155 353.137 377.629C348.472 365.761 341.51 354.009 331.373 344.55C325.923 339.461 319.866 332.994 312.177 330.385C307.285 328.721 304.885 332.847 305.158 336.299V336.303ZM330.401 358.371C330.989 360.052 331.953 361.698 333.068 363.246C328.505 359.214 321.298 356.993 314.809 356.248C313.961 354.651 312.766 352.448 315.143 351.824C316.722 351.396 318.546 351.48 320.192 351.86C324.705 352.912 327.096 355.909 330.401 358.371ZM339.954 367.955C337.175 365.342 334.357 362.546 332.711 359.321C332.006 357.929 331.328 356.462 331.208 354.964C331.038 352.68 331.377 353.064 333.491 353.273C339.896 360.753 347.5 370.547 351.037 377.134C350.073 376.353 349.043 375.618 348.169 374.917C345.373 372.643 342.55 370.386 339.954 367.951V367.955ZM313.903 363.348C313.029 361.734 312.302 359.954 311.919 358.081C320.107 358.598 328.162 360.886 334.624 365.538C334.74 365.618 334.861 365.623 334.928 365.56C335.445 366.158 335.967 366.742 336.511 367.295C336.912 367.71 337.349 368.094 337.76 368.504C329.402 367.014 321.615 367.233 313.908 363.348H313.903Z" fill="#151923"/>
<path d="M326.498 347.698C328.893 348.028 328.514 351.124 326.123 350.794C323.728 350.464 324.107 347.368 326.498 347.698Z" fill="url(#paint8_linear_72_105)"/>
<path d="M321.65 343.6C324.407 343.979 323.97 347.547 321.213 347.163C318.462 346.784 318.894 343.216 321.65 343.6Z" fill="url(#paint9_linear_72_105)"/>
<path d="M315.83 337.044C317.686 337.302 319.077 338.805 318.89 340.357C318.698 341.905 316.99 342.984 315.139 342.726C313.284 342.467 311.892 340.959 312.079 339.416C312.267 337.869 313.975 336.789 315.83 337.048V337.044Z" fill="url(#paint10_linear_72_105)"/>
<path d="M315.063 346.525C315.103 346.521 315.143 346.516 315.179 346.512C316.74 346.334 316.459 348.622 314.996 348.024C314.96 348.011 314.92 347.993 314.889 347.979C314.055 347.636 314.175 346.632 315.067 346.525H315.063Z" fill="url(#paint11_linear_72_105)"/>
<path d="M353.61 396.896C353.128 402.863 352.772 408.857 350.849 414.553C350.443 415.793 348.535 415.342 348.726 414.049C349.948 405.446 352.861 397.823 351.804 388.801C351.237 383.975 351.233 379.105 355.532 375.943C355.675 375.836 355.84 375.769 355.987 375.716C355.327 375.225 354.966 374.418 355.153 373.619C355.416 372.504 356.603 371.835 357.807 372.121C359.011 372.406 359.774 373.535 359.506 374.65C359.314 375.448 358.61 376.019 357.78 376.157C357.793 376.179 357.829 376.188 357.825 376.22C358.048 376.889 358.222 377.598 358.315 378.32C358.409 378.802 358.462 379.306 358.494 379.805C358.525 379.988 358.538 380.184 358.529 380.372C358.561 380.715 358.574 381.068 358.561 381.433V381.451C358.565 381.491 358.556 381.54 358.561 381.594V381.612C358.543 381.977 358.534 382.343 358.503 382.722C358.453 383.485 358.364 384.27 358.235 385.05C357.66 388.676 356.339 392.333 354.622 395.25V395.268C354.31 395.843 353.958 396.378 353.606 396.891L353.61 396.896Z" fill="#151923"/>
<path d="M355.412 359.432C355.599 353.973 357.909 349.424 359.073 344.229C359.341 343.029 357.508 342.65 357.107 343.765C353.793 352.89 352.919 363.197 355.492 372.759C355.586 373.102 356.165 373.013 356.139 372.67C355.769 368.227 355.265 363.888 355.416 359.437L355.412 359.432Z" fill="#151923"/>
<path d="M370.308 341.856C370.245 341.053 368.854 340.835 368.742 341.686C367.288 352.845 361.963 363.152 357.882 373.602C357.753 373.932 358.359 374.088 358.475 373.74C360.549 367.407 363.894 361.555 366.481 355.419C368.243 351.226 370.669 346.463 370.308 341.856Z" fill="#151923"/>
<path d="M387.86 235.103C385.476 243.776 381.392 253.042 375.852 261.715C374.624 263.635 373.322 265.514 371.939 267.402C371.101 268.557 370.165 269.68 369.262 270.851C369.213 270.925 369.108 271.071 368.994 271.152C367.318 273.227 365.512 275.269 363.6 277.189C363.258 277.506 362.933 277.889 362.591 278.206C361.574 279.207 360.557 280.15 359.532 281.102C359.353 281.2 359.231 281.289 359.125 281.436C357.921 282.477 356.709 283.47 355.488 284.454C355.375 284.544 355.253 284.576 355.204 284.698C351.6 287.521 347.711 289.962 343.594 291.898C342.056 292.647 340.511 293.314 338.867 293.891C334.751 295.453 330.39 296.56 325.85 297.024L325.46 297.105C323.938 297.219 322.474 297.268 320.928 297.325C317.715 297.333 314.444 297.121 311.092 296.479C289.207 292.541 272.017 277.986 260.594 259.673C256.575 253.254 253.329 246.387 250.783 239.301V239.244C246.837 228.212 244.722 216.822 244.648 205.953C244.648 204.538 244.632 203.106 244.681 201.666C244.73 201.218 244.616 200.006 244.445 198.477C244.339 196.89 244.095 195.003 243.892 193.31C243.827 192.635 243.778 192.025 243.664 191.488C243.542 190.146 243.428 189.243 243.355 189.194L243.338 189.129C243.241 188.966 243.208 188.787 243.119 188.689L243.103 188.616C243.159 188.543 243.135 188.429 243.265 188.405C252.255 181.896 263.141 175.396 274.897 169.961C283.821 165.828 293.348 162.33 302.981 160.052C304.38 159.718 305.869 159.36 307.285 159.076C316.397 157.212 325.59 156.505 334.368 157.375C338.737 157.758 343.065 158.579 347.231 159.865C380.473 169.945 396.411 203.651 387.852 235.103H387.86Z" fill="url(#paint12_linear_72_105)"/>
<path d="M347.238 159.865C343.081 158.571 338.753 157.749 334.376 157.375C325.589 156.505 316.404 157.204 307.292 159.076C305.877 159.36 304.388 159.71 302.989 160.052C302.875 161.191 303.436 162.33 304.892 162.59C319.536 165.6 332.212 170.864 342.471 177.901C342.951 178.308 343.488 178.634 343.96 178.975C330.967 180.236 317.6 184.687 305.681 187.973C304.274 188.315 304.201 189.698 304.884 190.438C302.867 189.08 300.833 187.941 299.165 187.03C283.097 178.455 259.959 186.891 243.663 191.48C242.581 191.756 242.5 193.384 243.761 193.327C243.804 193.316 243.848 193.308 243.891 193.302C255.639 192.895 267.118 189.072 278.923 188.299C290.199 187.501 315.965 195.076 311.97 209.606C309.115 219.922 290.362 220.955 281.917 220.394C271.43 219.67 262.847 214.723 255.314 208.573C254.411 207.694 253.556 206.807 252.694 205.864C252.523 205.652 252.263 205.636 252.068 205.742C249.375 203.342 246.885 200.917 244.444 198.477C243.549 197.663 242.695 196.768 241.865 195.946C240.36 194.441 237.285 196.223 238.465 198.102C240.214 200.868 242.288 203.504 244.64 205.953C246.267 207.686 247.992 209.273 249.847 210.835C257.047 227.179 265.784 243.231 276.645 257.606C280.746 263.074 285.416 269.354 290.753 275.261C280.314 270.428 269.982 264.709 260.586 259.665C272 277.978 289.199 292.541 311.084 296.47C314.435 297.113 317.714 297.333 320.92 297.317C322.465 297.26 323.922 297.219 325.451 297.097L325.842 297.016C330.381 296.552 334.742 295.445 338.859 293.883C340.502 293.306 342.04 292.639 343.585 291.89L343.569 291.833C347.678 289.848 351.493 287.464 355.187 284.69C355.236 284.568 355.358 284.535 355.472 284.446C356.692 283.462 357.912 282.469 359.108 281.428C359.214 281.281 359.328 281.192 359.515 281.094C360.54 280.142 361.557 279.198 362.574 278.198C362.916 277.88 363.241 277.498 363.583 277.181C365.487 275.261 367.301 273.211 368.977 271.144C369.091 271.063 369.197 270.916 369.245 270.843C370.148 269.672 371.084 268.549 371.922 267.394C373.305 265.506 374.607 263.627 375.835 261.707C381.384 253.034 385.46 243.768 387.843 235.095C396.402 203.643 380.464 169.937 347.222 159.857L347.238 159.865ZM305.299 190.731C305.584 190.862 305.877 190.975 306.267 190.902C321.839 188.754 336.752 186.672 352.152 185.744C355.968 189.397 359.32 193.4 361.988 197.785C346.612 194.791 329.861 195.686 315.013 199.485C312.597 196.109 308.928 193.107 305.291 190.731H305.299ZM338.061 284.731C328.575 287.041 317.836 285.382 306.894 281.696C304.461 279.947 302.086 278.108 299.742 276.156C292.363 269.729 286.107 262.26 280.119 254.735C270.072 241.994 262.318 227.928 254.126 214.073C257.657 216.627 261.497 218.71 265.459 220.41C273.749 226.601 283.398 231.223 293.153 235.689C316.364 246.387 334.514 260.69 338.061 284.723V284.731ZM364.486 258.623C359.361 271.388 352.307 278.873 344.033 282.615C342.471 250.618 307.789 239.391 279.395 224.616C280.095 224.738 280.795 224.893 281.429 225.023C290.875 226.26 302.932 224.323 310.791 218.222C321.57 225.104 333.75 229.97 344.895 236.332C351.404 240.025 357.4 244.183 362.363 249.544C363.973 251.269 364.909 253.262 365.731 255.345C365.34 256.419 364.95 257.549 364.494 258.632L364.486 258.623ZM368.887 244.833C364.966 240.701 360.231 237.153 357.05 234.989C344.31 226.26 328.258 220.923 313.101 216.285C314.045 215.285 314.997 214.292 315.713 213.153C318.137 209.5 318.178 205.953 316.795 202.683C333.945 201.405 350.24 202.894 366.577 206.685C371.068 217.856 372.134 230.686 368.887 244.825V244.833Z" fill="#151923"/>
<path d="M380.522 213.78C376.706 214.528 377.788 220.003 381.604 219.247C385.42 218.49 384.329 213.023 380.522 213.78Z" fill="#1D4587"/>
<path d="M376.697 232.191C376.754 232.305 376.811 232.41 376.868 232.516C378.276 235.128 382.645 234.265 382.946 231.312C382.946 231.19 382.962 231.068 382.978 230.946C383.499 225.804 374.257 227.635 376.697 232.183V232.191Z" fill="#1D4587"/>
<path d="M375.088 245.81C372.159 246.387 372.98 250.585 375.917 250.008C378.846 249.43 378.025 245.224 375.088 245.81Z" fill="#1D4587"/>
<path d="M379.496 199.64C379.317 199.559 379.171 199.469 379 199.38C377.528 198.599 375.884 198.924 374.818 200.201C374.696 200.356 374.582 200.486 374.452 200.632C372.467 203.065 375.128 206.352 378.089 205.758C381.05 205.172 382.262 201.121 379.496 199.632V199.64Z" fill="#1D4587"/>
<path d="M357.482 1.6832C333.14 12.1538 315.331 36.2516 299.076 55.3134C268.852 90.7523 249.717 133.993 238.124 177.299C237.953 177.828 237.863 178.341 237.693 178.878C237.188 180.725 236.676 182.563 236.236 184.394C235.707 186.476 234.975 197.37 238.913 195.54C240.874 194.604 242.859 193.709 244.836 192.871C246.007 192.334 247.122 191.87 248.301 191.382C271.195 181.449 296.31 173.874 319.7 164.022C324.728 161.907 329.601 159.702 334.385 157.383C341.861 153.73 349.078 149.76 355.838 145.253C385.826 125.28 378.212 94.9096 371.915 66.1338C378.366 51.1805 382.499 35.7065 382.263 21.9572C382.084 9.49342 372.964 -4.98804 357.482 1.6832Z" fill="url(#paint13_linear_72_105)"/>
<path d="M357.482 1.6832C333.14 12.1538 315.331 36.2516 299.076 55.3134C268.852 90.7523 249.717 133.993 238.124 177.299C238.303 179.195 238.465 181.082 238.709 182.962C238.058 184.085 237.473 185.199 237.09 186.33C236.391 188.217 238.514 190.154 240.54 189.129C249.798 184.312 257.153 173.915 264.239 166.609C270.756 159.832 276.963 152.811 282.918 145.587C308.041 145.896 333.742 143.317 356.115 132.399C352.283 138.72 348.134 143.618 344.782 146.075C315.957 167.195 278.094 172.141 248.301 191.382C271.195 181.449 296.31 173.874 319.7 164.022C324.728 161.907 329.601 159.702 334.385 157.383C341.861 153.73 349.078 149.76 355.838 145.253C385.826 125.28 378.211 94.9096 371.914 66.1338C378.366 51.1805 382.499 35.7065 382.263 21.9572C382.084 9.49342 372.964 -4.98804 357.482 1.6832ZM337.891 80.0051C343.155 78.4105 349.094 77.8492 354.398 79.1672C362.371 81.0709 359.133 89.1659 356.855 95.0235C335.873 98.6195 312.988 107.618 299.312 122.75C302.493 117.039 305.113 110.986 306.52 104.868C316.576 95.5361 323.45 84.4146 337.891 80.0051ZM253.532 166.87C250.888 169.489 247.748 172.288 244.835 175.225C254.362 151.038 276.215 114.777 294.853 86.9774C301.696 85.9279 302.688 84.496 302.843 92.7212C302.9 98.1232 301.134 103.493 299.263 108.602C294.87 120.399 286.539 130.877 278.257 140.656C270.52 149.768 261.994 158.295 253.541 166.87H253.532ZM285.611 142.316C286.815 140.787 288.142 139.338 289.313 137.793C290.916 135.726 292.437 133.57 293.95 131.341C294.194 131.544 294.585 131.528 294.935 131.211C314.631 113.589 340.267 104.217 366.887 101.19C366.203 107.992 364.364 114.484 362.013 120.423C338.013 135.466 312.492 135.791 285.611 142.316Z" fill="#151923"/>
<path d="M315.99 65.9386C308.269 67.4681 310.458 78.5407 318.178 77.0112C325.907 75.4817 323.719 64.4009 315.99 65.9386Z" fill="url(#paint14_linear_72_105)"/>
<path d="M330.578 50.5296C321.685 52.2869 324.207 65.0436 333.1 63.2863C341.992 61.5209 339.47 48.7642 330.578 50.5296Z" fill="url(#paint15_linear_72_105)"/>
<path d="M347.605 26.1471C341.609 27.3349 337.525 32.9404 338.623 38.4726C339.713 44.0049 345.636 47.6415 351.616 46.47C357.603 45.2822 361.688 39.6604 360.589 34.1282C359.499 28.5959 353.585 24.9593 347.597 26.1471H347.605Z" fill="url(#paint16_linear_72_105)"/>
<path d="M353.024 60.1216C352.902 60.1053 352.756 60.0972 352.634 60.0809C347.484 59.6497 349.103 67.8505 353.699 65.483C353.813 65.426 353.927 65.361 354.049 65.3121C356.669 63.9698 355.945 60.3657 353.016 60.1216H353.024Z" fill="url(#paint17_linear_72_105)"/>
<path d="M244.119 252.343L244.136 252.408C245.486 260.503 246.031 268.752 245.625 276.929C244.559 300.213 236.309 322.789 218.297 337.352C216.938 338.467 215.49 339.524 214.083 340.444C213.155 341.07 212.211 341.623 211.211 342.209C210.031 342.844 208.851 343.462 207.647 344.031C206.045 344.78 204.401 345.415 202.807 345.952C199.129 347.237 195.33 348.091 191.531 348.49C189.765 348.734 188.049 348.88 186.202 348.864C179.783 349.059 173.201 348.164 166.749 346.391C166.522 346.318 166.302 346.244 166.107 346.236C164.658 345.813 163.227 345.382 161.754 344.894C160.159 344.381 158.614 343.853 156.962 343.21C155.416 342.608 153.806 341.941 152.292 341.257C150.844 340.631 149.388 339.931 147.98 339.215C137.567 333.943 127.983 327.012 120.368 319.568C119.701 318.917 119.034 318.258 118.432 317.599C117.773 316.94 117.195 316.338 116.593 315.671C92.601 289.376 89.9162 248.958 115.153 222.859C118.334 219.597 121.865 216.643 125.672 214.113C133.239 208.98 142.017 205.123 151.275 202.463C152.715 202.04 154.286 201.641 155.742 201.283C165.708 198.761 176.211 197.517 186.503 197.093C200.04 196.565 213.326 197.533 224.919 199.412C225.049 199.38 225.09 199.493 225.163 199.542L225.18 199.607C225.171 199.762 225.237 199.957 225.228 200.169L225.245 200.234C225.196 200.315 225.562 201.267 226.107 202.601C226.351 203.163 226.546 203.814 226.831 204.497C227.498 206.214 228.304 208.166 229.003 209.801C229.622 211.372 230.126 212.567 230.395 212.991C231.192 214.317 231.965 215.716 232.607 217.14C238.18 227.659 242.069 239.741 244.095 252.351L244.119 252.343Z" fill="url(#paint18_linear_72_105)"/>
<path d="M230.085 206.01C229.743 207.247 229.41 208.475 229.036 209.785C228.043 213.324 226.994 216.888 225.806 220.483C225.554 220.483 225.277 220.638 225.236 220.939C224.976 222.216 224.602 223.518 224.219 224.844C220.477 234.501 215.213 243.467 206.012 249.3C198.576 254.043 180.824 262.301 172.957 253.661C161.86 241.604 181.556 221.509 192.295 216.79C203.441 211.819 215.88 209.834 226.863 204.481L227.05 204.432C228.181 203.879 227.238 202.317 226.147 202.577C208.884 206.1 183.362 209.378 173.127 225.552C172.005 227.22 170.833 229.343 169.629 231.597C169.881 230.531 169.043 229.286 167.644 229.636C155.034 232.288 140.52 234.526 127.975 239.7C128.251 239.13 128.536 238.545 128.796 237.967C134.556 226.097 143.481 214.772 155.351 204.7C156.555 203.716 156.457 202.333 155.774 201.251C154.318 201.609 152.748 201.999 151.308 202.43C142.049 205.083 133.271 208.947 125.705 214.081C121.889 216.611 118.358 219.572 115.185 222.827C89.9485 248.926 92.6332 289.344 116.625 315.638C117.227 316.297 117.813 316.907 118.464 317.566C119.058 318.233 119.725 318.892 120.4 319.535C128.015 326.979 137.591 333.911 148.013 339.183C149.42 339.899 150.876 340.59 152.325 341.225C153.838 341.916 155.449 342.583 156.994 343.177C158.638 343.82 160.184 344.349 161.786 344.861C163.251 345.358 164.691 345.781 166.139 346.204C166.334 346.204 166.554 346.277 166.782 346.358C173.249 347.994 179.758 348.905 186.218 348.758L186.234 348.832C188.081 348.848 189.797 348.701 191.563 348.457C195.362 348.059 199.161 347.204 202.839 345.919C204.433 345.374 206.077 344.747 207.68 343.999C208.884 343.429 210.063 342.811 211.243 342.177C212.244 341.599 213.179 341.038 214.115 340.411C215.522 339.492 216.97 338.434 218.329 337.32C236.341 322.757 244.591 300.18 245.657 276.896C239.604 286.309 233.095 296.999 226.05 306.762C227.856 298.464 228.962 290.011 229.906 282.737C232.436 263.472 232.282 243.646 230.467 224.332C231.362 221.948 232.111 219.532 232.672 217.099C233.608 213.576 234.12 209.964 234.332 206.425C234.486 203.992 230.76 203.813 230.126 205.978L230.085 206.01ZM123.915 250.301C138.567 243.646 153.228 238.341 168.612 232.744C168.962 232.638 169.206 232.37 169.377 232.093C167.302 236.169 165.431 240.896 165 245.403C149.469 248.983 133.604 256.345 121.116 266.751C121.36 261.227 122.328 255.727 123.915 250.301ZM138.982 315.695C128.739 303.654 123.126 290.686 121.49 277.661C134.475 265.921 148.607 256.524 164.992 249.357C165.39 253.205 167.245 256.622 171.313 258.941C172.599 259.697 173.949 260.218 175.324 260.657C163.828 272.592 151.91 285.65 144.685 300.367C142.903 304.077 140.406 309.764 138.974 315.695H138.982ZM181.068 340.118C171.59 340.436 161.323 336.677 150.079 326.922C149.013 326.035 148.159 325.157 147.232 324.303C146.947 321.903 146.809 319.543 147.346 317.046C149.143 309.374 152.504 302.458 156.49 295.689C163.422 284.039 172.167 273.406 178.473 261.446C188.789 263.423 200.772 259.396 208.786 253.571C209.388 253.181 209.884 252.676 210.462 252.221C192.043 280.419 166.082 308.357 181.076 340.118H181.068ZM225.196 281.664C223.625 291.947 221.714 302.198 218.223 312.058C217.125 315.069 215.88 318.046 214.635 320.959C206.41 329.892 197.461 336.766 187.593 339.174C178.513 314.231 187.788 291.41 203.579 269.655C210.185 260.568 216.612 251.334 221.095 241.303C223.829 237.666 226.196 233.72 228.141 229.612C227.766 246.981 227.905 264.449 225.196 281.655V281.664Z" fill="#151923"/>
<path d="M112.387 291.361C116.259 290.222 118.073 296.039 114.201 297.195C110.312 298.334 108.498 292.508 112.387 291.361Z" fill="#1D4587"/>
<path d="M125.331 307.307C125.331 307.445 125.322 307.576 125.331 307.706C125.387 310.928 120.962 312.237 119.156 309.536C119.074 309.414 119.009 309.317 118.928 309.203C115.82 304.46 125.217 301.702 125.322 307.307H125.331Z" fill="#1D4587"/>
<path d="M133.76 319.706C136.746 318.827 138.137 323.302 135.159 324.172C132.173 325.059 130.79 320.576 133.76 319.706Z" fill="#1D4587"/>
<path d="M106.057 277.181C106.171 277.01 106.277 276.847 106.375 276.685C107.326 275.196 109.01 274.699 110.629 275.432C110.817 275.505 110.996 275.586 111.183 275.668C114.25 277.018 113.509 281.509 110.499 282.404C107.473 283.299 104.284 279.963 106.065 277.173L106.057 277.181Z" fill="#1D4587"/>
<path d="M3.10871 121.22C9.67418 133.155 21.357 144.448 35.0086 154.153C43.1524 181.994 50.7836 211.843 89.7697 214.349C98.5725 214.927 107.53 214.805 116.593 214.284C122.386 213.926 128.203 213.438 134.125 212.795C161.697 209.818 189.822 204.041 216.954 201.381C218.346 201.21 219.655 201.072 221.063 200.966C223.39 200.706 225.749 200.502 228.133 200.356C232.86 200.006 226.758 191 225.22 189.446C223.878 188.104 222.47 186.761 221.063 185.427C220.64 185.053 220.29 184.654 219.875 184.28C187.186 152.713 147.216 124.881 100.346 109.196C75.1336 100.759 45.9267 88.7347 17.1183 91.6554C-1.21132 93.5103 -2.87915 110.424 3.11683 121.228L3.10871 121.22Z" fill="url(#paint19_linear_72_105)"/>
<path d="M3.10902 121.22C9.67449 133.155 21.3573 144.448 35.0089 154.153C43.1527 181.994 50.7839 211.843 89.77 214.349C98.5728 214.927 107.53 214.805 116.593 214.284C122.386 213.926 128.203 213.438 134.126 212.795C161.697 209.818 189.822 204.041 216.955 201.381C178.514 199.404 139.324 213.698 100.908 209.639C96.4331 209.159 89.9815 206.978 83.1394 203.415C110.264 201.869 136.477 191.504 160.705 178.927C170.053 182.221 179.563 185.215 189.236 187.859C199.723 190.683 212.008 196.011 223.39 195.637C225.839 195.515 226.962 192.814 225.343 191.537C224.415 190.756 223.3 190.089 222.113 189.438C221.405 187.705 220.64 185.996 219.867 184.28C187.178 152.713 147.208 124.881 100.338 109.196C75.1258 100.759 45.9188 88.7347 17.1105 91.6554C-1.21915 93.5103 -2.88695 110.424 3.10902 121.228V121.22ZM117.626 155.455C122.028 160.019 127.576 163.941 133.491 167.309C112.729 160.987 86.0683 164.461 63.9149 171.637C58.8138 167.716 51.6707 162.338 58.464 156.789C62.9549 153.063 68.9915 150.631 74.8899 149.435C91.0961 146.156 103.267 152.347 117.635 155.455H117.626ZM162.787 172.394C149.901 168.033 136.623 163.119 126.527 155.113C122.174 151.64 117.805 147.873 115.194 143.203C111.264 136.052 112.932 136.8 120.1 134.343C151.935 149.134 191.1 169.627 212.317 185.777C208.038 184.67 203.604 183.8 199.74 182.832C187.3 179.602 174.812 176.453 162.787 172.394ZM71.4811 195.995C66.258 192.041 61.2627 187.363 57.2355 181.847C84.5713 171.409 114.087 166.91 141.911 172.442C142.408 172.532 142.798 172.353 142.928 172.06C145.491 173.232 148.046 174.346 150.625 175.339C152.537 176.112 154.522 176.705 156.458 177.421C127.153 184.963 102.209 197.191 71.4811 195.987V195.995Z" fill="#151923"/>
<path d="M89.1842 126.614C97.4419 124.141 100.802 134.742 92.5443 137.207C84.2866 139.672 80.9347 129.071 89.1842 126.614Z" fill="url(#paint20_linear_72_105)"/>
<path d="M67.3888 120.496C76.8994 117.649 80.7557 129.86 71.2533 132.708C61.759 135.547 57.8945 123.336 67.3888 120.496Z" fill="url(#paint21_linear_72_105)"/>
<path d="M38.8078 107.845C45.2024 105.942 51.955 108.765 53.6309 114.069C55.3069 119.357 51.3529 125.394 44.9664 127.306C38.5718 129.218 31.8192 126.378 30.1514 121.09C28.4673 115.794 32.405 109.765 38.8078 107.853V107.845Z" fill="url(#paint22_linear_72_105)"/>
<path d="M50.3609 139.737C50.4748 139.664 50.605 139.591 50.7189 139.517C55.5026 136.637 57.9922 144.472 52.3542 144.692C52.224 144.692 52.0694 144.708 51.9311 144.708C48.7175 144.83 47.6273 141.397 50.3528 139.737H50.3609Z" fill="url(#paint23_linear_72_105)"/>
<path d="M249.904 246.062C257.169 266.125 264.882 286.106 267.087 307.429C267.591 312.05 260.741 313.409 259.447 308.942C250.677 279.223 248.847 250.195 232.071 222.501C223.081 207.694 215.865 191.903 225.147 175.282C225.448 174.72 225.88 174.249 226.278 173.874C223.414 173.256 221.047 171.173 220.478 168.31C219.697 164.299 222.544 160.385 226.872 159.531C231.2 158.677 235.333 161.215 236.122 165.218C236.692 168.09 235.252 170.994 232.754 172.654C232.844 172.711 232.966 172.678 232.982 172.8C234.691 174.647 236.309 176.689 237.684 178.894C238.71 180.31 239.621 181.864 240.467 183.442C240.841 183.995 241.166 184.613 241.419 185.24C242.037 186.306 242.59 187.436 243.103 188.641V188.698C243.2 188.803 243.241 188.982 243.339 189.153L243.355 189.21C243.859 190.414 244.364 191.61 244.819 192.887C245.788 195.426 246.658 198.119 247.398 200.828C250.905 213.438 252.028 227.26 250.767 239.261L250.783 239.318C250.636 241.644 250.278 243.898 249.904 246.078V246.062Z" fill="#151923"/>
<path d="M200.317 121.896C192.848 103.916 193.621 85.7408 189.7 67.1589C188.797 62.8633 182.288 64.3603 182.622 68.5583C185.38 103.053 197.778 137.776 220.29 164.998C221.095 165.975 222.844 164.819 222.251 163.737C214.465 149.89 206.41 136.556 200.317 121.896Z" fill="#151923"/>
<path d="M222.641 42.8415C221.242 40.3276 216.418 41.6862 217.321 44.6069C229.109 82.9502 227.092 124.255 229.313 164.193C229.394 165.462 231.574 165.063 231.436 163.77C228.792 140.168 230.989 116.241 230.289 92.4934C229.809 76.3034 230.631 57.2578 222.633 42.8415H222.641Z" fill="#151923"/>
<path d="M58.4944 457.29C56.853 461.408 55.598 466.025 54.99 470.615C54.8567 471.638 54.7612 472.64 54.6865 473.656C54.6267 474.286 54.6312 474.908 54.5979 475.55C54.5949 475.592 54.5818 475.673 54.5983 475.723C54.5685 476.868 54.5951 478.024 54.68 479.144C54.707 479.33 54.7044 479.547 54.7314 479.733C54.7827 480.321 54.8534 480.887 54.9274 481.441C54.9488 481.514 54.9666 481.57 54.9638 481.643C55.0673 482.28 55.1935 482.883 55.3221 483.497C55.3342 483.554 55.3701 483.582 55.3419 483.648C55.7466 485.408 56.3365 487.052 57.1488 488.499C57.4493 489.047 57.7691 489.573 58.1473 490.063C59.0733 491.367 60.1954 492.491 61.566 493.372L61.6692 493.465C62.1351 493.744 62.6099 493.98 63.1009 494.237C64.1621 494.728 65.2971 495.113 66.5847 495.34C74.9102 496.909 84.6708 493.175 93.574 486.949C96.706 484.772 99.6937 482.277 102.528 479.593L102.541 479.572C106.941 475.38 110.833 470.767 113.905 466.074C114.31 465.462 114.719 464.843 115.102 464.211C115.211 464.015 115.587 463.493 116.066 462.865C116.549 462.195 117.158 461.415 117.706 460.713C117.91 460.43 118.103 460.18 118.284 459.957C118.707 459.401 118.998 459.017 119.038 459.008L119.062 458.979C119.135 458.928 119.198 458.855 119.263 458.823L119.281 458.796C119.291 458.758 119.328 458.708 119.291 458.674C118.151 454.516 116.388 450.075 114.029 445.962C112.248 442.837 110.086 439.894 107.549 437.478C107.179 437.112 106.803 436.748 106.402 436.406C103.924 434.242 101.08 432.561 97.9443 431.631C96.3909 431.135 94.7383 430.853 93.0048 430.784C79.209 430.182 64.4913 442.394 58.4899 457.297L58.4944 457.29Z" fill="url(#paint24_linear_72_105)"/>
<path d="M58.4939 457.29C56.8525 461.408 55.5974 466.025 54.9895 470.615C54.8562 471.638 54.7607 472.64 54.686 473.656C54.6262 474.286 54.6307 474.908 54.5974 475.55C54.5943 475.592 54.5813 475.673 54.5978 475.723C54.568 476.868 54.5946 478.024 54.6795 479.144C54.7065 479.331 54.7039 479.547 54.7309 479.733C54.7822 480.321 54.8529 480.887 54.9269 481.441C54.9483 481.514 54.966 481.57 54.9633 481.643C55.0668 482.28 55.193 482.883 55.3216 483.497C55.3336 483.554 55.3695 483.582 55.3414 483.648C55.7735 485.397 56.3722 486.997 57.1619 488.478L57.1437 488.506C57.4442 489.054 57.764 489.58 58.1422 490.07C59.0682 491.374 60.1903 492.498 61.5609 493.379L61.6641 493.472C62.1301 493.751 62.6048 493.987 63.0958 494.244C64.157 494.735 65.292 495.12 66.5796 495.347C74.9051 496.916 84.6658 493.182 93.569 486.956C89.0536 487.734 84.0314 488.667 79.2436 489.202C82.6611 487.444 85.9624 485.417 88.8488 483.668C96.4604 479.054 103.845 473.416 110.811 467.405C111.86 467.011 112.872 466.578 113.897 466.069C115.36 465.361 116.791 464.528 118.135 463.594C119.062 462.957 118.541 461.73 117.623 462.15C117.109 462.383 116.582 462.643 116.059 462.861C114.575 463.555 113.07 464.236 111.512 464.862C111.48 464.796 111.389 464.762 111.27 464.822C110.725 465.11 110.193 465.372 109.65 465.611C105.437 467.146 101.21 468.014 97.5502 466.756C94.6053 465.737 88.7138 462.491 90.6688 457.583C93.4326 450.702 104.057 451.262 107.55 453.298C111.219 455.399 113.932 458.772 117.703 460.701C117.703 460.701 117.713 460.709 117.732 460.725C118.138 460.946 118.561 460.222 118.281 459.945C114.198 455.523 108.929 448.414 101.23 449.722C100.415 449.862 99.4256 450.058 98.3887 450.341C98.8225 450.124 99.1873 449.521 98.8184 449.161C95.8111 445.957 92.6511 442.024 88.7167 439.542C88.9747 439.458 89.2317 439.398 89.5033 439.293C94.8652 437.781 100.528 437.391 106.196 438.282C106.754 438.375 107.258 437.976 107.541 437.468C107.171 437.102 106.795 436.737 106.394 436.396C103.916 434.231 101.072 432.551 97.9356 431.62C96.3823 431.125 94.7296 430.842 92.9962 430.774C79.2003 430.172 64.4826 442.384 58.4812 457.287L58.4939 457.29ZM92.5198 452.75C88.6913 448.886 83.4205 446 77.501 444.994C79.6192 443.496 81.8468 442.263 84.1258 441.246C88.9478 443.962 93.2801 447.086 97.8126 450.336C97.9239 450.438 98.0525 450.423 98.1869 450.407C96.3125 450.895 94.2656 451.648 92.5186 452.744L92.5198 452.75ZM89.5702 471.698C94.0354 471.224 98.5194 470.668 102.998 469.227C104.776 469.082 106.635 468.747 108.51 468.174C101.914 472.946 95.4125 477.884 88.5268 481.902C84.4432 484.255 80.282 486.553 76.0405 488.238C74.7192 488.736 73.4216 489.176 72.127 489.573C67.488 489.532 63.4738 488.642 60.9969 486.225C68.9079 476.35 78.9053 472.86 89.569 471.692L89.5702 471.698ZM60.1192 469.367C60.9745 468.589 61.8407 467.862 62.8537 467.351C65.9968 465.77 69.1393 464.872 72.3256 464.24C77.7879 463.15 83.1794 462.865 88.6541 461.491C89.5374 465.307 92.9661 467.95 96.4272 468.83C96.6702 468.875 96.9522 468.906 97.2149 468.959C83.7016 471.106 69.1137 470.784 59.6179 484.418C57.9406 481.558 57.7176 477.262 59.6037 470.967C59.754 470.426 59.9457 469.883 60.1192 469.367ZM73.4857 448.159C79.9438 448.963 85.7335 450.751 91.0352 453.87C89.6525 455.076 88.6753 456.617 88.4481 458.563C88.3626 459.156 88.4013 459.741 88.4306 460.31C82.1224 460.05 75.335 459.962 68.684 461.84C67.0267 462.307 64.4677 463.131 62.0191 464.339C64.9107 457.725 68.8724 452.33 73.4857 448.159Z" fill="#151923"/>
<path d="M66.9015 449.155C67.9526 450.055 66.0535 452.256 65.0093 451.361C63.9594 450.466 65.8573 448.26 66.9015 449.155Z" fill="#1D4587"/>
<path d="M62.9994 457.694C62.9469 457.729 62.8955 457.77 62.8511 457.815C61.6544 458.736 60.463 457.71 61.1857 456.385C61.2105 456.332 61.2468 456.276 61.2774 456.222C62.55 453.918 65.0834 456.089 63.0006 457.7L62.9994 457.694Z" fill="#1D4587"/>
<path d="M59.7033 463.835C60.5064 464.524 59.0523 466.218 58.2435 465.531C57.4461 464.841 58.8945 463.148 59.7033 463.835Z" fill="#1D4587"/>
<path d="M71.2034 443.18C71.2838 443.164 71.3723 443.157 71.4469 443.141C72.1599 443.028 72.6061 443.414 72.5942 444.129C72.5869 444.208 72.5922 444.291 72.5964 444.368C72.573 445.715 70.769 446.74 69.9589 446.047C69.135 445.345 69.8879 443.42 71.2092 443.179L71.2034 443.18Z" fill="#1D4587"/>
<path d="M120.162 365.805C116.227 371.727 113.251 379.053 111.178 386.49C101.029 398.002 89.9956 410.018 94.2752 423.156C95.244 426.122 96.5078 428.924 97.9467 431.618C98.8765 433.34 99.8634 435.02 100.926 436.691C105.881 444.446 112.035 451.49 116.798 459.214C117.052 459.598 117.291 459.967 117.527 460.379C117.957 461.032 118.359 461.72 118.732 462.415C119.514 463.802 122.33 458.971 122.752 457.985C123.118 457.129 123.469 456.259 123.819 455.383C123.909 455.13 124.021 454.891 124.119 454.643C132.446 434.144 138.269 412.557 138.253 392.691C138.237 382.002 139.124 368.907 134.026 360.726C130.792 355.527 123.734 360.438 120.168 365.803L120.162 365.805Z" fill="#1D4587"/>
<path d="M120.162 365.805C116.227 371.727 113.251 379.053 111.179 386.49C101.029 398.002 89.9958 410.018 94.2755 423.156C95.2442 426.122 96.5081 428.924 97.9469 431.618C98.8767 433.34 99.8636 435.02 100.926 436.691C105.881 444.446 112.035 451.49 116.798 459.214C112.374 446.417 101.269 438.614 97.6986 425.171C97.275 423.606 97.2823 420.867 97.7857 417.551C102.101 425.626 109.855 430.585 118.238 434.202C118.163 438.22 118.246 442.192 118.497 446.105C118.781 450.322 118.291 455.93 119.994 459.401C120.371 460.143 121.621 459.617 121.914 458.699C122.104 458.15 122.22 457.587 122.318 456.997C122.927 456.217 123.517 455.428 124.106 454.64C132.434 434.14 138.257 412.554 138.241 392.687C138.224 381.998 139.111 368.904 134.013 360.723C130.78 355.524 123.722 360.435 120.155 365.8L120.162 365.805ZM121.879 413.037C120.628 415.899 119.797 418.912 119.235 421.863C118.973 413.262 113.949 405.947 108.035 401.249C108.924 398.373 110.132 394.388 113.298 394.749C115.418 394.976 117.224 396.102 118.51 397.581C122.034 401.653 121.185 407.492 121.878 413.031L121.879 413.037ZM121.165 432.763C121.169 427.293 121.359 421.508 123.224 415.739C124.038 413.25 124.962 410.654 126.499 408.325C128.86 404.782 128.783 405.559 130.744 407.029C129.087 421.854 126.115 440.837 122.474 452.736C122.342 451.02 122.087 449.348 121.957 447.812C121.574 442.836 121.152 437.875 121.159 432.764L121.165 432.763ZM99.2149 411.477C100.099 408.548 101.322 405.465 103.008 402.416C110.931 407.699 116.76 415.595 118.311 426.172C118.332 426.36 118.466 426.427 118.605 426.374C118.477 427.563 118.375 428.735 118.317 429.861C118.267 430.71 118.297 431.537 118.275 432.38C111.242 425.539 102.907 421.582 99.2149 411.477Z" fill="#151923"/>
<path d="M129.678 394.763C131.797 396.583 127.97 401.051 125.846 399.231C123.729 397.417 127.561 392.948 129.678 394.763Z" fill="url(#paint25_linear_72_105)"/>
<path d="M129.188 385.904C131.634 387.997 127.213 393.147 124.774 391.052C122.33 388.964 126.743 383.81 129.188 385.904Z" fill="url(#paint26_linear_72_105)"/>
<path d="M130.422 372.803C132.064 374.208 131.839 377.25 129.923 379.484C128.002 381.726 125.029 382.402 123.388 381.003C121.751 379.591 121.977 376.554 123.892 374.314C125.809 372.086 128.786 371.396 130.422 372.803Z" fill="url(#paint27_linear_72_105)"/>
<path d="M119.094 386.7C119.146 386.72 119.191 386.734 119.231 386.75C121.054 387.332 118.213 390.641 117.363 388.932C117.338 388.895 117.322 388.851 117.294 388.803C116.808 387.826 118.055 386.373 119.089 386.702L119.094 386.7Z" fill="url(#paint28_linear_72_105)"/>
<path d="M33.6495 451.868C32.1857 456.805 31.3321 462.452 31.3254 468.169C31.3208 469.433 31.3691 470.693 31.452 471.976C31.4983 472.769 31.5975 473.557 31.6716 474.368C31.6697 474.416 31.6729 474.517 31.7058 474.588C31.8604 476.041 32.1014 477.506 32.4146 478.944C32.4765 479.183 32.5228 479.461 32.5732 479.702C32.7491 480.456 32.9317 481.184 33.1257 481.91C33.1818 482.006 33.2089 482.079 33.2178 482.179C33.4679 483.001 33.735 483.789 34.0032 484.584C34.0315 484.662 34.0813 484.699 34.0682 484.78C34.8999 487.092 35.9685 489.276 37.3008 491.261C37.7871 492.01 38.3042 492.734 38.8911 493.42C40.3414 495.225 42.0247 496.855 43.9849 498.205L44.1448 498.34C44.8053 498.776 45.4768 499.151 46.1682 499.563C47.6599 500.365 49.2324 501.066 50.9733 501.57C62.2525 504.999 74.5112 501.952 85.2196 495.594C88.9722 493.376 92.5093 490.73 95.7863 487.816L95.8045 487.788C100.889 483.236 105.241 478.048 108.49 472.623C108.917 471.917 109.349 471.203 109.746 470.467C109.857 470.228 110.268 469.645 110.795 468.929C111.317 468.161 111.983 467.279 112.582 466.477C112.813 466.153 113.01 465.86 113.224 465.623C113.681 464.976 113.999 464.55 114.052 464.545L114.07 464.518C114.161 464.463 114.233 464.381 114.303 464.343L114.328 464.32C114.324 464.273 114.372 464.215 114.314 464.167C112.089 458.691 108.981 452.747 105.149 447.122C102.248 442.853 98.8842 438.748 95.0967 435.222C94.5458 434.709 93.9693 434.159 93.3934 433.668C89.7378 430.486 85.6836 427.861 81.3788 426.127C79.2515 425.237 76.9999 424.583 74.6921 424.203C56.3402 421.039 38.9856 433.989 33.631 451.865L33.6495 451.868Z" fill="url(#paint29_linear_72_105)"/>
<path d="M33.6497 451.867C32.1859 456.805 31.3323 462.452 31.3257 468.168C31.3211 469.433 31.3693 470.693 31.4523 471.976C31.4986 472.769 31.5977 473.557 31.6718 474.368C31.6699 474.416 31.6731 474.517 31.706 474.588C31.8606 476.041 32.1016 477.506 32.4148 478.944C32.4768 479.183 32.523 479.461 32.5735 479.702C32.7494 480.456 32.9319 481.184 33.1259 481.91C33.182 482.006 33.2091 482.079 33.2181 482.178C33.4682 483.001 33.7352 483.789 34.0034 484.584C34.0317 484.662 34.0815 484.699 34.0685 484.78C34.953 487.086 36.0164 489.218 37.3261 491.238L37.301 491.261C37.7873 492.01 38.3045 492.734 38.8914 493.42C40.3417 495.225 42.0249 496.855 43.9851 498.205L44.145 498.339C44.8056 498.776 45.477 499.151 46.1684 499.563C47.6602 500.365 49.2327 501.066 50.9735 501.569C62.2527 504.999 74.5114 501.952 85.2198 495.594C79.3803 495.799 72.906 496.119 66.6551 495.96C70.8693 494.317 74.8907 492.324 78.4052 490.6C87.6826 486.075 96.4728 480.196 104.648 473.781C105.958 473.459 107.228 473.091 108.496 472.622C110.314 471.977 112.05 471.171 113.677 470.219C114.781 469.568 113.89 467.916 112.748 468.299C112.114 468.503 111.463 468.742 110.807 468.927C108.96 469.547 107.086 470.15 105.136 470.678C105.08 470.582 104.954 470.524 104.81 470.584C104.134 470.846 103.471 471.081 102.798 471.3C97.4885 472.519 92.0598 472.884 86.9973 470.65C82.923 468.843 74.5615 463.7 76.3007 457.819C78.7576 449.559 92.9105 452.123 97.8851 455.31C103.118 458.617 107.287 463.363 112.605 466.472C112.605 466.472 112.622 466.486 112.656 466.515C113.23 466.856 113.667 466.022 113.253 465.617C107.075 459.292 98.8773 449.352 88.9121 449.678C87.8672 449.723 86.5938 449.792 85.2535 449.971C85.7979 449.767 86.1709 449.06 85.6201 448.547C81.0823 443.956 76.2198 438.416 70.5942 434.58C70.9123 434.526 71.2535 434.496 71.5954 434.412C78.4258 433.419 85.8423 433.908 93.5023 436.017C94.2621 436.242 94.855 435.812 95.1359 435.208C94.585 434.694 94.0085 434.144 93.4326 433.654C89.777 430.472 85.7228 427.847 81.418 426.113C79.2907 425.223 77.0391 424.568 74.7313 424.189C56.3794 421.025 39.0248 433.975 33.6702 451.851L33.6497 451.867ZM77.8749 452.008C72.137 446.435 64.6591 441.85 56.6547 439.555C59.1958 438.016 61.9276 436.845 64.7768 435.949C71.6206 440.224 77.8981 444.941 84.458 449.862C84.6191 450.002 84.7882 450.009 84.963 450.014C82.5821 450.315 79.9865 450.907 77.8738 452.002L77.8749 452.008ZM77.2645 475.546C83.0936 475.72 88.924 475.787 94.5856 474.733C96.9187 474.861 99.3176 474.76 101.701 474.357C93.8116 479.274 86.0633 484.407 77.6507 488.314C72.6534 490.595 67.5587 492.782 62.235 494.191C60.5759 494.592 58.9323 494.924 57.2836 495.204C51.1367 494.341 45.6767 492.526 41.9779 489.023C50.727 477.858 63.3615 475.175 77.2633 475.54L77.2645 475.546ZM37.9 467.468C38.8916 466.626 39.9172 465.86 41.1732 465.393C45.0545 463.933 49.0564 463.334 53.1569 463.092C60.1993 462.653 67.2682 463.227 74.2856 462.44C76.111 467.437 81.1132 471.385 85.8444 473.096C86.1625 473.185 86.5462 473.272 86.9015 473.395C69.4005 473.779 50.0468 470.836 39.8471 486.487C37.1347 482.574 36.0855 477.079 37.4946 469.422C37.6013 468.759 37.7574 468.103 37.8943 467.469L37.9 467.468ZM51.913 442.884C60.5922 445.026 68.5663 448.291 76.1124 453.174C74.5029 454.47 73.4751 456.254 73.5167 458.684C73.5108 459.428 73.6532 460.165 73.7944 460.896C65.4104 459.477 56.4182 458.186 47.9365 459.418C45.8246 459.716 42.5897 460.316 39.5527 461.431C42.236 453.537 46.5276 447.373 51.913 442.884Z" fill="#151923"/>
<path d="M43.3589 442.999C44.9003 444.323 42.7805 446.786 41.2403 445.467C39.7001 444.149 41.8187 441.68 43.3589 442.999Z" fill="#1D4587"/>
<path d="M39.6791 453.168C39.6162 453.211 39.5591 453.253 39.502 453.295C38.0791 454.252 36.3187 452.74 37.0486 451.192C37.0894 451.129 37.1107 451.059 37.14 450.999C38.4239 448.292 42.1614 451.492 39.686 453.173L39.6791 453.168Z" fill="#1D4587"/>
<path d="M36.3861 460.381C37.5624 461.393 35.9411 463.29 34.7533 462.281C33.5712 461.271 35.2028 459.365 36.3861 460.381Z" fill="#1D4587"/>
<path d="M48.0181 436.158C48.1205 436.161 48.2273 436.157 48.3297 436.159C49.2389 436.124 49.9042 436.698 50.0159 437.603C50.0318 437.707 50.0408 437.807 50.0509 437.913C50.2585 439.619 48.0528 440.614 46.8602 439.582C45.6574 438.558 46.3065 436.223 48.0193 436.164L48.0181 436.158Z" fill="#1D4587"/>
<path d="M70.5532 338.931C67.4538 345.067 66.4523 353.556 66.8602 362.623C57.0991 373.39 46.2537 384.413 58.8565 404.171C61.7004 408.625 64.9057 413.003 68.3383 417.322C70.5389 420.077 72.8083 422.819 75.1883 425.573C86.2527 438.387 98.7817 450.786 109.547 463.458C110.112 464.095 110.636 464.71 111.182 465.374C112.121 466.453 113.042 467.56 113.945 468.695C115.772 470.93 117.704 465.739 117.862 464.604C118.003 463.622 118.114 462.604 118.218 461.588C118.24 461.29 118.303 461.019 118.326 460.727C121.128 436.988 119.672 410.588 110.271 383.756C105.223 369.323 100.367 352.058 88.9035 338.627C81.6126 330.073 73.3474 333.368 70.5614 338.941L70.5532 338.931Z" fill="url(#paint30_linear_72_105)"/>
<path d="M70.5535 338.931C67.454 345.067 66.4526 353.555 66.8604 362.623C57.0993 373.39 46.2539 384.413 58.8567 404.17C61.7006 408.625 64.906 413.003 68.3385 417.322C70.5391 420.077 72.8086 422.819 75.1885 425.573C86.2529 438.386 98.7819 450.785 109.547 463.458C96.8963 444.1 76.6176 428.335 64.9178 408.484C63.555 406.181 62.2702 402.479 61.4752 398.255C71.7312 411.184 85.6697 421.532 99.9026 430.37C101.704 435.767 103.691 441.161 105.905 446.556C108.32 452.394 110.227 459.727 114.413 465.212C115.331 466.392 116.948 466.275 116.958 465.176C116.984 464.53 116.896 463.824 116.77 463.077C117.31 462.311 117.813 461.511 118.325 460.721C121.127 436.982 119.671 410.582 110.27 383.751C105.222 369.317 100.366 352.052 88.9025 338.622C81.6117 330.067 73.3464 333.362 70.5604 338.935L70.5535 338.931ZM95.3831 403.504C94.8517 406.772 95.0358 410.453 95.5883 414.177C91.1408 402.44 80.1782 390.198 69.1128 381.068C69.1009 377.609 69.0134 372.787 73.9218 374.772C77.1946 376.069 80.4244 378.447 83.0479 381.049C90.2445 388.209 91.7222 395.693 95.3831 403.504ZM103.603 429.792C101.039 422.41 98.5952 414.692 98.6693 407.781C98.7043 404.803 98.8707 401.737 100.071 399.317C101.932 395.645 102.184 396.652 105.82 399.568C110.329 418.805 114.832 443.02 114.987 457.371C113.976 455.001 112.805 452.616 111.89 450.478C108.971 443.577 105.999 436.682 103.602 429.786L103.603 429.792ZM60.7328 390.707C60.6892 387.182 61.0567 383.589 62.1408 380.27C76.4946 391.143 88.9338 404.543 96.2363 419.559C96.3583 419.827 96.5804 419.972 96.7655 419.969C97.1314 421.516 97.5224 423.039 97.988 424.547C98.319 425.67 98.7455 426.79 99.1019 427.92C85.3537 415.363 71.0191 406.097 60.734 390.713L60.7328 390.707Z" fill="#151923"/>
<path d="M98.4329 382.516C102.461 385.962 98.8361 390.189 94.8079 386.744C90.7841 383.292 94.408 379.058 98.4329 382.516Z" fill="url(#paint31_linear_72_105)"/>
<path d="M93.5298 370.323C98.1654 374.294 93.9919 379.163 89.3563 375.193C84.7196 371.216 88.8942 366.352 93.5298 370.323Z" fill="url(#paint32_linear_72_105)"/>
<path d="M89.1981 353.212C92.3167 355.889 93.4121 359.889 91.5961 362C89.787 364.116 85.6628 363.645 82.5441 360.967C79.4197 358.291 78.3244 354.292 80.1392 352.174C81.9552 350.063 86.0737 350.536 89.1969 353.206L89.1981 353.212Z" fill="url(#paint33_linear_72_105)"/>
<path d="M78.8088 366.644C78.8909 366.692 78.9649 366.731 79.0388 366.769C82.0377 368.417 79.3513 371.55 77.2661 368.83C77.2172 368.768 77.1602 368.696 77.1089 368.623C75.9289 367.079 77.1019 365.701 78.8076 366.638L78.8088 366.644Z" fill="url(#paint34_linear_72_105)"/>
<path d="M104.975 476.953C97.9378 483.136 90.7626 489.203 85.2668 496.854C84.0676 498.507 86.222 500.356 87.675 498.913C97.3735 489.364 104.447 478.723 116.58 471.497C123.065 467.629 129.147 463.06 129.485 454.951C129.501 454.684 129.445 454.42 129.393 454.197C130.557 454.523 131.86 454.196 132.698 453.218C133.867 451.852 133.71 449.813 132.35 448.642C130.985 447.472 128.946 447.63 127.775 448.989C126.937 449.967 126.82 451.352 127.341 452.465C127.306 452.472 127.262 452.433 127.228 452.47C126.214 452.833 125.178 453.295 124.195 453.861C123.523 454.199 122.849 454.616 122.197 455.046C121.937 455.178 121.685 455.351 121.456 455.542C121 455.824 120.546 456.146 120.1 456.503L120.085 456.518C120.025 456.549 119.978 456.607 119.896 456.648L119.883 456.669C119.436 457.026 118.991 457.389 118.546 457.781C117.636 458.553 116.729 459.402 115.873 460.288C111.83 464.382 108.377 469.4 106.176 474.192L106.162 474.213C105.7 475.124 105.33 476.046 104.987 476.951L104.975 476.953Z" fill="#151923"/>
<path d="M150.168 439.56C156.815 434.203 160.552 427.166 166.061 420.89C167.333 419.444 169.333 421.271 168.281 422.797C159.68 435.328 147.566 446.072 133.489 451.991C132.983 452.205 132.61 451.427 133.064 451.134C138.913 447.399 144.749 443.918 150.167 439.555L150.168 439.56Z" fill="#151923"/>
<path d="M159.63 405.261C160.685 404.579 162.116 406.034 161.15 406.968C148.453 419.193 140.057 435.245 130.442 449.94C130.138 450.405 129.437 449.833 129.777 449.367C135.936 440.936 140.43 431.447 145.922 422.581C149.67 416.537 153.583 409.164 159.63 405.261Z" fill="#151923"/>
<defs>
<linearGradient id="paint0_linear_72_105" x1="369.258" y1="419.321" x2="378.257" y2="381.339" gradientUnits="userSpaceOnUse">
<stop stop-color="#2494E0"/>
<stop offset="1" stop-color="#1A71C6"/>
</linearGradient>
<linearGradient id="paint1_linear_72_105" x1="356.206" y1="365.583" x2="414.136" y2="365.583" gradientUnits="userSpaceOnUse">
<stop offset="0.34" stop-color="#1D4587"/>
<stop offset="0.53" stop-color="#0466B5"/>
</linearGradient>
<linearGradient id="paint2_linear_72_105" x1="389.423" y1="360.159" x2="392.737" y2="360.159" gradientUnits="userSpaceOnUse">
<stop stop-color="#2494E0"/>
<stop offset="1" stop-color="#1A71C6"/>
</linearGradient>
<linearGradient id="paint3_linear_72_105" x1="394.632" y1="358.161" x2="398.449" y2="358.161" gradientUnits="userSpaceOnUse">
<stop stop-color="#2494E0"/>
<stop offset="1" stop-color="#1A71C6"/>
</linearGradient>
<linearGradient id="paint4_linear_72_105" x1="400.345" y1="354.968" x2="406.603" y2="354.968" gradientUnits="userSpaceOnUse">
<stop stop-color="#2494E0"/>
<stop offset="1" stop-color="#1A71C6"/>
</linearGradient>
<linearGradient id="paint5_linear_72_105" x1="400.256" y1="362.077" x2="402" y2="362.077" gradientUnits="userSpaceOnUse">
<stop stop-color="#2494E0"/>
<stop offset="1" stop-color="#1A71C6"/>
</linearGradient>
<linearGradient id="paint6_linear_72_105" x1="328.118" y1="416.689" x2="333.829" y2="374.342" gradientUnits="userSpaceOnUse">
<stop stop-color="#2494E0"/>
<stop offset="1" stop-color="#1A71C6"/>
</linearGradient>
<linearGradient id="paint7_linear_72_105" x1="305.14" y1="356.373" x2="354.186" y2="356.373" gradientUnits="userSpaceOnUse">
<stop offset="0.4" stop-color="#0466B5"/>
<stop offset="0.81" stop-color="#1D4587"/>
</linearGradient>
<linearGradient id="paint8_linear_72_105" x1="324.504" y1="349.246" x2="328.117" y2="349.246" gradientUnits="userSpaceOnUse">
<stop stop-color="#2494E0"/>
<stop offset="1" stop-color="#1A71C6"/>
</linearGradient>
<linearGradient id="paint9_linear_72_105" x1="319.354" y1="345.384" x2="323.51" y2="345.384" gradientUnits="userSpaceOnUse">
<stop stop-color="#2494E0"/>
<stop offset="1" stop-color="#1A71C6"/>
</linearGradient>
<linearGradient id="paint10_linear_72_105" x1="312.057" y1="339.885" x2="318.903" y2="339.885" gradientUnits="userSpaceOnUse">
<stop stop-color="#2494E0"/>
<stop offset="1" stop-color="#1A71C6"/>
</linearGradient>
<linearGradient id="paint11_linear_72_105" x1="314.323" y1="347.315" x2="316.227" y2="347.315" gradientUnits="userSpaceOnUse">
<stop stop-color="#2494E0"/>
<stop offset="1" stop-color="#1A71C6"/>
</linearGradient>
<linearGradient id="paint12_linear_72_105" x1="333.715" y1="295.707" x2="306.714" y2="159.216" gradientUnits="userSpaceOnUse">
<stop stop-color="#2494E0"/>
<stop offset="1" stop-color="#1A71C6"/>
</linearGradient>
<linearGradient id="paint13_linear_72_105" x1="235.805" y1="97.871" x2="382.271" y2="97.871" gradientUnits="userSpaceOnUse">
<stop offset="0.34" stop-color="#1D4587"/>
<stop offset="0.53" stop-color="#0466B5"/>
</linearGradient>
<linearGradient id="paint14_linear_72_105" x1="311.174" y1="71.4789" x2="322.986" y2="71.4789" gradientUnits="userSpaceOnUse">
<stop stop-color="#2494E0"/>
<stop offset="1" stop-color="#1A71C6"/>
</linearGradient>
<linearGradient id="paint15_linear_72_105" x1="325.037" y1="56.8999" x2="338.64" y2="56.8999" gradientUnits="userSpaceOnUse">
<stop stop-color="#2494E0"/>
<stop offset="1" stop-color="#1A71C6"/>
</linearGradient>
<linearGradient id="paint16_linear_72_105" x1="338.444" y1="36.3085" x2="360.776" y2="36.3085" gradientUnits="userSpaceOnUse">
<stop stop-color="#2494E0"/>
<stop offset="1" stop-color="#1A71C6"/>
</linearGradient>
<linearGradient id="paint17_linear_72_105" x1="349.444" y1="62.9935" x2="355.668" y2="62.9935" gradientUnits="userSpaceOnUse">
<stop stop-color="#2494E0"/>
<stop offset="1" stop-color="#1A71C6"/>
</linearGradient>
<linearGradient id="paint18_linear_72_105" x1="196.471" y1="347.838" x2="152.317" y2="202.054" gradientUnits="userSpaceOnUse">
<stop stop-color="#2494E0"/>
<stop offset="1" stop-color="#1A71C6"/>
</linearGradient>
<linearGradient id="paint19_linear_72_105" x1="0.000877551" y1="152.966" x2="229.898" y2="152.966" gradientUnits="userSpaceOnUse">
<stop offset="0.4" stop-color="#0466B5"/>
<stop offset="0.81" stop-color="#1D4587"/>
</linearGradient>
<linearGradient id="paint20_linear_72_105" x1="84.4249" y1="131.911" x2="97.3036" y2="131.911" gradientUnits="userSpaceOnUse">
<stop stop-color="#2494E0"/>
<stop offset="1" stop-color="#1A71C6"/>
</linearGradient>
<linearGradient id="paint21_linear_72_105" x1="61.9136" y1="126.598" x2="76.7367" y2="126.598" gradientUnits="userSpaceOnUse">
<stop stop-color="#2494E0"/>
<stop offset="1" stop-color="#1A71C6"/>
</linearGradient>
<linearGradient id="paint22_linear_72_105" x1="29.7609" y1="117.584" x2="54.0214" y2="117.584" gradientUnits="userSpaceOnUse">
<stop stop-color="#2494E0"/>
<stop offset="1" stop-color="#1A71C6"/>
</linearGradient>
<linearGradient id="paint23_linear_72_105" x1="48.8151" y1="141.795" x2="55.5921" y2="141.795" gradientUnits="userSpaceOnUse">
<stop stop-color="#2494E0"/>
<stop offset="1" stop-color="#1A71C6"/>
</linearGradient>
<linearGradient id="paint24_linear_72_105" x1="59.0053" y1="498.478" x2="106.393" y2="443.189" gradientUnits="userSpaceOnUse">
<stop stop-color="#2494E0"/>
<stop offset="1" stop-color="#1A71C6"/>
</linearGradient>
<linearGradient id="paint25_linear_72_105" x1="125.123" y1="397.55" x2="130.402" y2="396.444" gradientUnits="userSpaceOnUse">
<stop stop-color="#2494E0"/>
<stop offset="1" stop-color="#1A71C6"/>
</linearGradient>
<linearGradient id="paint26_linear_72_105" x1="123.943" y1="389.117" x2="130.032" y2="387.842" gradientUnits="userSpaceOnUse">
<stop stop-color="#2494E0"/>
<stop offset="1" stop-color="#1A71C6"/>
</linearGradient>
<linearGradient id="paint27_linear_72_105" x1="122.106" y1="377.911" x2="131.706" y2="375.9" gradientUnits="userSpaceOnUse">
<stop stop-color="#2494E0"/>
<stop offset="1" stop-color="#1A71C6"/>
</linearGradient>
<linearGradient id="paint28_linear_72_105" x1="117.159" y1="388.298" x2="119.896" y2="387.725" gradientUnits="userSpaceOnUse">
<stop stop-color="#2494E0"/>
<stop offset="1" stop-color="#1A71C6"/>
</linearGradient>
<linearGradient id="paint29_linear_72_105" x1="44.461" y1="501.363" x2="97.4235" y2="439.569" gradientUnits="userSpaceOnUse">
<stop stop-color="#2494E0"/>
<stop offset="1" stop-color="#1A71C6"/>
</linearGradient>
<linearGradient id="paint30_linear_72_105" x1="57.2969" y1="409.565" x2="114.595" y2="397.563" gradientUnits="userSpaceOnUse">
<stop offset="0.4" stop-color="#0466B5"/>
<stop offset="0.81" stop-color="#1D4587"/>
</linearGradient>
<linearGradient id="paint31_linear_72_105" x1="93.3575" y1="385.311" x2="99.8878" y2="383.943" gradientUnits="userSpaceOnUse">
<stop stop-color="#2494E0"/>
<stop offset="1" stop-color="#1A71C6"/>
</linearGradient>
<linearGradient id="paint32_linear_72_105" x1="87.6821" y1="373.549" x2="95.2052" y2="371.973" gradientUnits="userSpaceOnUse">
<stop stop-color="#2494E0"/>
<stop offset="1" stop-color="#1A71C6"/>
</linearGradient>
<linearGradient id="paint33_linear_72_105" x1="79.8917" y1="358.342" x2="91.8448" y2="355.838" gradientUnits="userSpaceOnUse">
<stop stop-color="#2494E0"/>
<stop offset="1" stop-color="#1A71C6"/>
</linearGradient>
<linearGradient id="paint34_linear_72_105" x1="76.8153" y1="368.451" x2="80.2354" y2="367.735" gradientUnits="userSpaceOnUse">
<stop stop-color="#2494E0"/>
<stop offset="1" stop-color="#1A71C6"/>
</linearGradient>
</defs>
</svg>
