<svg width="32" height="32" viewBox="0 0 32 32" fill="none" xmlns="http://www.w3.org/2000/svg">
<path d="M27.2713 4.64697C24.2623 1.6521 20.2595 0.00170899 15.9993 0C11.7486 0 7.73937 1.64893 4.71058 4.64307C1.67642 7.64233 0.00391001 11.6282 0 15.8518V15.8596C0.000488751 18.416 0.672766 20.9949 1.94889 23.3489L0.0437432 32L8.8029 30.0095C11.0213 31.1265 13.4966 31.7153 15.9932 31.7163H15.9995C20.2494 31.7163 24.2587 30.0671 27.288 27.0728C30.3248 24.071 31.998 20.0903 32 15.864C32.0012 11.6675 30.3221 7.68384 27.2713 4.64697ZM15.9993 29.2188H15.9936C13.752 29.2178 11.5309 28.6555 9.57072 27.5923L9.15651 27.3677L3.33206 28.6912L4.59719 22.947L4.35331 22.5269C3.14071 20.4377 2.49996 18.1316 2.49996 15.8569C2.50461 8.49438 8.55974 2.49756 15.9988 2.49756C19.5926 2.49902 22.9693 3.89087 25.5069 6.41626C28.0829 8.98071 29.501 12.3357 29.4998 15.8633C29.4969 23.2275 23.4405 29.2188 15.9993 29.2188Z" fill="#00C2FF"/>
<path d="M11.6457 8.86645H10.9444C10.7002 8.86645 10.3039 8.95776 9.96857 9.32226C9.63304 9.68701 8.68755 10.5686 8.68755 12.3616C8.68755 14.1545 9.99911 15.887 10.1819 16.1304C10.3649 16.3735 12.7136 20.1704 16.4335 21.6311C19.5251 22.845 20.1544 22.6035 20.8252 22.5427C21.4963 22.4822 22.9906 21.6614 23.2956 20.8105C23.6006 19.9597 23.6006 19.2302 23.5092 19.0779C23.4175 18.926 23.1734 18.835 22.8076 18.6528C22.4415 18.4705 20.6478 17.574 20.3123 17.4521C19.9767 17.3308 19.7328 17.27 19.4887 17.635C19.2446 17.9993 18.5259 18.842 18.3123 19.0852C18.0989 19.3286 17.8854 19.3591 17.5193 19.1768C17.1532 18.9939 15.9866 18.6023 14.5885 17.3611C13.5003 16.395 12.7452 15.1631 12.5316 14.7983C12.3182 14.4338 12.5089 14.2366 12.6924 14.0547C12.8568 13.8916 13.079 13.6685 13.262 13.4558C13.4448 13.2429 13.4969 13.0911 13.6191 12.8479C13.741 12.6047 13.6799 12.3918 13.5885 12.2097C13.4969 12.0273 12.7945 10.2253 12.469 9.50464C12.1948 8.8977 11.9065 8.8772 11.6457 8.86645Z" fill="#00C2FF"/>
</svg>
