<svg width="360" height="349" viewBox="0 0 360 349" fill="none" xmlns="http://www.w3.org/2000/svg">
<path d="M43.4609 344V79.1562C38.7734 84.7552 32.3281 89.3125 24.125 92.8281C15.9219 96.2135 8.17448 97.9062 0.882812 97.9062V43.0234C7.78385 41.9818 15.2057 39.7682 23.1484 36.3828C31.0911 32.8672 38.4479 28.1146 45.2188 22.125C52.1198 16.0052 57.3932 8.64844 61.0391 0.0546875H116.312V344H43.4609ZM267.25 348.883C240.818 348.883 219.203 342.372 202.406 329.352C185.74 316.201 177.406 296.083 177.406 269V217.828H248.891V247.32C248.891 253.44 249.216 259.365 249.867 265.094C250.648 270.823 252.341 275.51 254.945 279.156C257.549 282.802 261.651 284.625 267.25 284.625C274.672 284.625 279.555 282.151 281.898 277.203C284.242 272.125 285.414 265.68 285.414 257.867V190.289C285.414 184.69 285.023 179.156 284.242 173.688C283.591 168.219 282.029 163.661 279.555 160.016C277.081 156.37 273.109 154.547 267.641 154.547C254.62 154.547 248.109 163.987 248.109 182.867H185.023V0.0546875H348.891V64.5078H250.258V112.945C253.643 108.779 258.201 105.133 263.93 102.008C269.789 98.7526 276.625 97.125 284.438 97.125C300.062 97.125 312.758 100.12 322.523 106.109C332.419 112.099 339.971 120.432 345.18 131.109C350.518 141.786 354.164 154.156 356.117 168.219C358.201 182.281 359.242 197.385 359.242 213.531C359.242 234.234 358.135 252.919 355.922 269.586C353.839 286.122 349.607 300.315 343.227 312.164C336.977 324.013 327.732 333.128 315.492 339.508C303.383 345.758 287.302 348.883 267.25 348.883Z" fill="#11284A"/>
</svg>
